<!DOCTYPE svg PUBLIC "-//W3C//DTD SVG 20010904//EN" "http://www.w3.org/TR/2001/REC-SVG-20010904/DTD/svg10.dtd">
<svg version="1.0" xmlns="http://www.w3.org/2000/svg" width="1600px" height="1245px" viewBox="0 0 16000 12450" preserveAspectRatio="xMidYMid meet">
<g id="layer101" fill="#253860" stroke="none">
 <path d="M5560 12240 c-228 -10 -595 -25 -815 -34 -1308 -55 -1278 -53 -1337 -81 -87 -41 -1120 -465 -1134 -465 -11 0 -593 -661 -667 -757 -24 -31 -27 -45 -27 -107 0 -39 -11 -244 -24 -456 -44 -682 -44 -610 8 -880 111 -579 166 -877 166 -904 0 -18 -128 -275 -346 -695 -190 -366 -357 -686 -371 -710 l-25 -43 6 -790 c4 -490 10 -796 16 -808 6 -11 74 -43 182 -86 95 -36 211 -82 257 -100 94 -37 108 -40 147 -22 19 9 181 245 570 827 l543 814 107 83 107 83 36 -28 c20 -15 376 -290 791 -611 415 -320 771 -599 791 -619 32 -32 499 -780 499 -798 0 -5 -93 -65 -208 -134 -254 -154 -1736 -1059 -1956 -1193 l-158 -97 -1132 -410 c-622 -226 -1139 -418 -1148 -426 -39 -35 -31 -124 13 -151 17 -11 624 -225 1224 -432 77 -27 302 -105 499 -174 l359 -126 406 45 c749 83 1674 185 1921 211 225 25 249 29 290 55 25 15 349 195 720 399 371 205 743 410 827 456 84 46 154 84 157 84 6 0 382 -222 481 -283 56 -36 2538 -2018 2601 -2079 36 -35 114 -68 780 -328 406 -159 747 -290 756 -290 9 0 76 27 149 60 158 72 92 69 782 40 1320 -54 1257 -52 1284 -35 13 9 28 27 33 40 29 75 287 535 319 566 20 20 303 233 629 473 443 327 594 444 598 463 4 14 2 55 -4 91 -43 258 -192 1268 -192 1296 0 19 106 360 235 759 129 398 235 738 235 754 0 21 -39 99 -119 239 -65 115 -270 477 -456 804 l-336 594 -100 456 c-155 705 -187 853 -225 1025 -19 88 -39 172 -46 188 -6 15 -31 41 -55 57 -43 30 -2043 1637 -2053 1650 -3 4 -224 241 -491 526 l-486 519 -385 92 -386 92 -1048 469 -1049 470 -430 77 c-596 106 -855 153 -1337 240 -297 53 -439 75 -490 74 -40 -1 -260 -10 -488 -19z m-2745 -3566 c226 -48 413 -90 417 -93 6 -6 224 -757 230 -795 2 -15 -99 -100 -457 -381 -304 -238 -465 -371 -474 -390 -8 -17 -238 -366 -512 -777 l-498 -747 -103 41 c-57 22 -133 51 -169 65 l-66 24 -8 717 -7 717 322 620 c178 341 346 663 374 714 l51 95 225 143 c151 96 232 142 245 139 11 -3 205 -44 430 -92z m5407 -1202 c142 -97 257 -180 258 -184 0 -4 -126 -118 -279 -252 l-280 -246 -228 -64 c-125 -35 -261 -73 -302 -85 l-73 -20 -262 136 c-143 76 -353 185 -466 244 -113 59 -205 112 -205 118 0 6 157 128 349 271 l350 260 440 0 441 0 257 -178z m1345 -1293 c274 -132 503 -245 508 -250 10 -10 17 -93 64 -714 12 -154 23 -292 26 -306 3 -21 -61 -122 -339 -530 l-344 -504 -418 -117 c-231 -64 -533 -149 -672 -188 l-253 -71 -292 126 c-161 70 -501 217 -756 328 l-464 201 -148 300 c-82 164 -149 304 -149 310 0 13 1176 250 1229 248 72 -3 72 -3 362 515 151 268 281 495 289 504 12 15 831 388 852 389 3 0 231 -108 505 -241z m-4127 -1541 c140 -149 481 -512 758 -807 276 -294 502 -537 502 -540 0 -3 -22 -18 -48 -32 -26 -14 -399 -220 -830 -458 l-783 -432 -632 -69 c-348 -39 -906 -100 -1241 -137 l-608 -67 -222 76 c-121 42 -410 142 -641 223 -231 81 -530 185 -665 231 -282 98 -283 99 -249 109 13 4 451 162 972 351 521 189 956 344 966 344 21 0 2 -12 1396 839 578 352 1055 641 1060 641 6 0 125 -122 265 -272z"/>
 <path d="M7366 7609 c-122 -20 -254 -119 -309 -232 -140 -287 65 -626 380 -629 100 0 171 20 249 70 72 46 123 106 161 188 26 54 28 69 28 174 0 109 -2 119 -32 182 -60 127 -169 215 -300 243 -75 16 -104 17 -177 4z"/>
 </g>
<g id="layer102" fill="#b02418" stroke="none">
 <path d="M5560 12240 c-228 -10 -595 -25 -815 -34 -1308 -55 -1278 -53 -1337 -81 -87 -41 -1120 -465 -1134 -465 -11 0 -593 -661 -667 -757 -24 -31 -27 -45 -27 -107 0 -39 -11 -244 -24 -456 -44 -682 -44 -610 8 -880 111 -579 166 -877 166 -904 0 -18 -128 -275 -346 -695 -190 -366 -357 -686 -371 -710 l-25 -43 6 -790 c4 -490 10 -796 16 -808 6 -11 74 -43 182 -86 95 -36 211 -82 257 -100 94 -37 108 -40 147 -22 19 9 181 245 570 827 l543 814 107 83 107 83 36 -28 c20 -15 376 -290 791 -611 415 -320 771 -599 791 -619 32 -32 499 -780 499 -798 0 -5 -93 -65 -208 -134 -254 -154 -1736 -1059 -1956 -1193 l-158 -97 -1132 -410 c-622 -226 -1139 -418 -1148 -426 -39 -35 -31 -124 13 -151 17 -11 624 -225 1224 -432 77 -27 302 -105 499 -174 l359 -126 406 45 c749 83 1674 185 1921 211 225 25 249 29 290 55 25 15 349 195 720 399 371 205 743 410 827 456 84 46 154 84 157 84 6 0 382 -222 481 -283 56 -36 2538 -2018 2601 -2079 36 -35 114 -68 780 -328 406 -159 747 -290 756 -290 9 0 76 27 149 60 158 72 92 69 782 40 1320 -54 1257 -52 1284 -35 13 9 28 27 33 40 29 75 287 535 319 566 20 20 303 233 629 473 443 327 594 444 598 463 4 14 2 55 -4 91 -43 258 -192 1268 -192 1296 0 19 106 360 235 759 129 398 235 738 235 754 0 21 -39 99 -119 239 -65 115 -270 477 -456 804 l-336 594 -100 456 c-155 705 -187 853 -225 1025 -19 88 -39 172 -46 188 -6 15 -31 41 -55 57 -43 30 -2043 1637 -2053 1650 -3 4 -224 241 -491 526 l-486 519 -385 92 -386 92 -1048 469 -1049 470 -430 77 c-596 106 -855 153 -1337 240 -297 53 -439 75 -490 74 -40 -1 -260 -10 -488 -19z m-1563 -719 c197 -38 500 -97 673 -130 173 -34 324 -63 336 -66 24 -5 873 -589 892 -613 19 -25 15 -85 -8 -110 -23 -24 -61 -37 -88 -30 -9 3 -201 132 -426 288 -224 155 -420 286 -435 291 -14 4 -213 44 -441 88 -228 44 -521 101 -651 126 l-236 46 -239 -72 c-131 -39 -255 -72 -274 -72 -19 -1 -121 18 -226 41 -105 23 -200 42 -211 42 -11 0 -175 -83 -364 -185 -299 -161 -379 -199 -379 -181 0 2 63 78 141 168 l140 163 173 95 c94 52 183 103 196 113 35 25 61 22 305 -29 l220 -46 235 70 c129 38 252 70 272 71 20 0 198 -30 395 -68z m69 -916 c64 -19 122 -69 159 -136 67 -124 23 -273 -106 -355 -36 -22 -59 -28 -121 -32 -69 -4 -84 -2 -132 22 -88 43 -155 146 -156 237 0 111 78 225 180 259 67 23 111 25 176 5z m-1251 -1931 c226 -48 413 -90 417 -93 6 -6 224 -757 230 -795 2 -15 -99 -100 -457 -381 -304 -238 -465 -371 -474 -390 -8 -17 -238 -366 -512 -777 l-498 -747 -103 41 c-57 22 -133 51 -169 65 l-66 24 -8 717 -7 717 322 620 c178 341 346 663 374 714 l51 95 225 143 c151 96 232 142 245 139 11 -3 205 -44 430 -92z m5407 -1202 c142 -97 257 -180 258 -184 0 -4 -126 -118 -279 -252 l-280 -246 -228 -64 c-125 -35 -261 -73 -302 -85 l-73 -20 -262 136 c-143 76 -353 185 -466 244 -113 59 -205 112 -205 118 0 6 157 128 349 271 l350 260 440 0 441 0 257 -178z m1345 -1293 c274 -132 503 -245 508 -250 10 -10 17 -93 64 -714 12 -154 23 -292 26 -306 3 -21 -61 -122 -339 -530 l-344 -504 -418 -117 c-231 -64 -533 -149 -672 -188 l-253 -71 -292 126 c-161 70 -501 217 -756 328 l-464 201 -148 300 c-82 164 -149 304 -149 310 0 13 1176 250 1229 248 72 -3 72 -3 362 515 151 268 281 495 289 504 12 15 831 388 852 389 3 0 231 -108 505 -241z m-4127 -1541 c140 -149 481 -512 758 -807 276 -294 502 -537 502 -540 0 -3 -22 -18 -48 -32 -26 -14 -399 -220 -830 -458 l-783 -432 -632 -69 c-348 -39 -906 -100 -1241 -137 l-608 -67 -222 76 c-121 42 -410 142 -641 223 -231 81 -530 185 -665 231 -282 98 -283 99 -249 109 13 4 451 162 972 351 521 189 956 344 966 344 21 0 2 -12 1396 839 578 352 1055 641 1060 641 6 0 125 -122 265 -272z"/>
 <path d="M7468 7613 c7 -3 16 -2 19 1 4 3 -2 6 -13 5 -11 0 -14 -3 -6 -6z"/>
 <path d="M7129 7483 c-13 -16 -12 -17 4 -4 9 7 17 15 17 17 0 8 -8 3 -21 -13z"/>
 <path d="M7871 7094 c0 -11 3 -14 6 -6 3 7 2 16 -1 19 -3 4 -6 -2 -5 -13z"/>
 <path d="M7348 6753 c7 -3 16 -2 19 1 4 3 -2 6 -13 5 -11 0 -14 -3 -6 -6z"/>
 </g>
<g id="layer103" fill="#de5832" stroke="none">
 <path d="M5560 12240 c-228 -10 -595 -25 -815 -34 -1308 -55 -1278 -53 -1337 -81 -87 -41 -1120 -465 -1134 -465 -11 0 -593 -661 -667 -757 -24 -31 -27 -45 -27 -107 0 -39 -11 -244 -24 -456 -44 -682 -44 -610 8 -880 111 -579 166 -877 166 -904 0 -18 -128 -275 -346 -695 -190 -366 -357 -686 -371 -710 l-25 -43 6 -790 c4 -490 10 -796 16 -808 6 -11 74 -43 182 -86 95 -36 211 -82 257 -100 94 -37 108 -40 147 -22 19 9 181 245 570 827 l543 814 107 83 107 83 36 -28 c20 -15 376 -290 791 -611 415 -320 771 -599 791 -619 32 -32 499 -780 499 -798 0 -5 -93 -65 -208 -134 -254 -154 -1736 -1059 -1956 -1193 l-158 -97 -1132 -410 c-622 -226 -1139 -418 -1148 -426 -39 -35 -31 -124 13 -151 17 -11 624 -225 1224 -432 77 -27 302 -105 499 -174 l359 -126 406 45 c749 83 1674 185 1921 211 225 25 249 29 290 55 25 15 349 195 720 399 371 205 743 410 827 456 84 46 154 84 157 84 6 0 382 -222 481 -283 56 -36 2538 -2018 2601 -2079 36 -35 114 -68 780 -328 406 -159 747 -290 756 -290 9 0 76 27 149 60 158 72 92 69 782 40 1320 -54 1257 -52 1284 -35 13 9 28 27 33 40 29 75 287 535 319 566 20 20 303 233 629 473 443 327 594 444 598 463 4 14 2 55 -4 91 -43 258 -192 1268 -192 1296 0 19 106 360 235 759 129 398 235 738 235 754 0 21 -39 99 -119 239 -65 115 -270 477 -456 804 l-336 594 -100 456 c-155 705 -187 853 -225 1025 -19 88 -39 172 -46 188 -6 15 -31 41 -55 57 -43 30 -2043 1637 -2053 1650 -3 4 -224 241 -491 526 l-486 519 -385 92 -386 92 -1048 469 -1049 470 -430 77 c-596 106 -855 153 -1337 240 -297 53 -439 75 -490 74 -40 -1 -260 -10 -488 -19z m-1563 -719 c197 -38 500 -97 673 -130 173 -34 324 -63 336 -66 24 -5 873 -589 892 -613 19 -25 15 -85 -8 -110 -23 -24 -61 -37 -88 -30 -9 3 -201 132 -426 288 -224 155 -420 286 -435 291 -14 4 -213 44 -441 88 -228 44 -521 101 -651 126 l-236 46 -239 -72 c-131 -39 -255 -72 -274 -72 -19 -1 -121 18 -226 41 -105 23 -200 42 -211 42 -11 0 -175 -83 -364 -185 -299 -161 -379 -199 -379 -181 0 2 63 78 141 168 l140 163 173 95 c94 52 183 103 196 113 35 25 61 22 305 -29 l220 -46 235 70 c129 38 252 70 272 71 20 0 198 -30 395 -68z m6398 -777 c33 -8 70 -16 82 -19 24 -6 25 -7 167 -470 45 -146 70 -223 120 -383 13 -42 36 -117 51 -167 15 -49 35 -115 45 -145 23 -69 56 -174 115 -365 25 -82 57 -186 71 -230 14 -44 36 -114 49 -155 13 -41 44 -142 70 -225 25 -82 59 -190 74 -240 16 -49 43 -138 62 -197 18 -60 35 -107 38 -107 4 1 44 42 91 93 47 50 296 315 554 588 l468 498 27 -20 c14 -10 45 -36 69 -57 l43 -38 -128 -135 c-70 -75 -310 -329 -533 -565 -222 -237 -434 -461 -471 -500 l-67 -70 -16 -315 c-9 -173 -25 -475 -36 -670 -41 -756 -53 -1001 -47 -1006 3 -4 102 11 219 31 200 35 264 46 628 108 431 74 700 121 825 143 77 14 204 36 283 49 318 55 439 75 697 120 149 26 317 55 375 64 l105 17 7 -43 c3 -24 16 -60 28 -80 11 -20 17 -39 13 -43 -4 -4 -44 -13 -88 -19 -44 -7 -114 -19 -155 -27 -94 -18 -1687 -292 -1795 -310 -103 -16 -418 -70 -515 -88 -41 -8 -204 -36 -362 -62 l-286 -49 -25 -65 c-14 -36 -62 -171 -107 -300 -98 -280 -123 -350 -315 -893 -81 -230 -145 -421 -141 -424 6 -6 199 -39 591 -102 512 -82 954 -154 1025 -167 85 -15 430 -71 1260 -204 239 -38 460 -74 490 -80 52 -10 577 -95 760 -123 75 -12 85 -16 81 -33 -2 -10 -4 -49 -4 -87 0 -58 -3 -67 -19 -67 -10 0 -156 23 -325 50 -170 28 -407 66 -528 85 -121 19 -242 39 -270 45 -27 5 -246 41 -485 80 -239 38 -682 110 -985 159 -302 49 -734 119 -960 155 -225 37 -446 73 -490 81 -44 8 -115 19 -157 26 l-78 12 -125 -119 c-246 -235 -763 -739 -764 -747 -1 -4 7 -10 17 -14 13 -5 2695 -1210 3975 -1786 136 -61 247 -114 247 -118 0 -3 -11 -11 -24 -17 -13 -6 -37 -35 -53 -64 -16 -30 -35 -52 -43 -52 -8 1 -836 372 -1840 824 -1004 452 -1966 885 -2138 962 l-313 140 -92 -30 c-51 -16 -132 -42 -182 -57 -49 -15 -115 -36 -145 -46 -30 -9 -95 -30 -145 -44 -49 -15 -108 -33 -130 -41 -22 -7 -59 -18 -82 -24 -24 -6 -43 -14 -43 -18 0 -8 41 -39 170 -127 179 -122 270 -185 350 -240 47 -32 126 -86 175 -120 50 -34 128 -88 175 -120 83 -58 189 -131 360 -247 47 -31 123 -84 170 -116 47 -32 128 -88 180 -123 52 -36 133 -92 180 -124 47 -32 119 -82 160 -110 41 -28 113 -77 160 -110 47 -32 135 -92 195 -133 186 -128 405 -277 540 -372 50 -34 109 -74 132 -89 23 -14 41 -30 39 -36 -3 -12 -145 -84 -167 -84 -9 -1 -29 9 -45 21 -16 13 -67 49 -114 81 -182 123 -311 212 -465 318 -88 61 -196 135 -240 165 -44 29 -111 75 -150 102 -38 26 -115 79 -170 117 -55 37 -143 98 -195 134 -52 36 -129 88 -170 116 -41 29 -120 83 -175 121 -145 100 -229 157 -325 222 -125 85 -264 180 -360 247 -47 33 -134 93 -195 134 -60 41 -141 97 -180 123 -282 195 -323 220 -412 248 -38 12 -93 30 -123 40 -30 10 -86 27 -125 38 -228 68 -214 61 -398 208 -95 75 -174 139 -176 141 -2 1 -2 5 1 8 3 4 32 -3 64 -14 33 -10 75 -24 94 -29 19 -6 132 -40 250 -77 118 -36 242 -74 275 -85 33 -10 92 -28 130 -40 168 -51 184 -54 239 -40 28 7 76 21 106 30 30 10 96 30 145 45 50 15 115 35 145 45 30 10 93 30 140 44 47 14 144 44 215 67 72 22 140 43 152 47 12 4 244 223 515 488 394 384 496 488 507 520 7 21 28 80 46 129 35 96 233 656 271 765 12 36 50 144 84 240 34 96 75 211 90 255 16 44 49 138 74 208 l45 129 16 276 c8 152 26 486 40 742 13 256 32 603 41 771 l16 306 -22 84 c-11 46 -29 109 -39 139 -11 30 -31 96 -46 145 -15 50 -36 115 -45 145 -26 79 -98 311 -145 465 -15 50 -35 115 -45 145 -10 30 -31 96 -46 145 -15 50 -37 122 -49 160 -13 39 -35 111 -50 160 -15 50 -36 115 -45 145 -10 30 -29 91 -43 135 -69 225 -81 264 -97 315 -19 58 -49 154 -95 305 -15 50 -35 115 -45 145 -10 30 -30 96 -45 145 -15 50 -33 108 -41 130 -18 53 -18 59 4 50 9 -4 44 -13 77 -21z m-6329 -139 c64 -19 122 -69 159 -136 67 -124 23 -273 -106 -355 -36 -22 -59 -28 -121 -32 -69 -4 -84 -2 -132 22 -88 43 -155 146 -156 237 0 111 78 225 180 259 67 23 111 25 176 5z m-1251 -1931 c226 -48 413 -90 417 -93 6 -6 224 -757 230 -795 2 -15 -99 -100 -457 -381 -304 -238 -465 -371 -474 -390 -8 -17 -238 -366 -512 -777 l-498 -747 -103 41 c-57 22 -133 51 -169 65 l-66 24 -8 717 -7 717 322 620 c178 341 346 663 374 714 l51 95 225 143 c151 96 232 142 245 139 11 -3 205 -44 430 -92z m5407 -1202 c142 -97 257 -180 258 -184 0 -4 -126 -118 -279 -252 l-280 -246 -228 -64 c-125 -35 -261 -73 -302 -85 l-73 -20 -262 136 c-143 76 -353 185 -466 244 -113 59 -205 112 -205 118 0 6 157 128 349 271 l350 260 440 0 441 0 257 -178z m1345 -1293 c274 -132 503 -245 508 -250 10 -10 17 -93 64 -714 12 -154 23 -292 26 -306 3 -21 -61 -122 -339 -530 l-344 -504 -418 -117 c-231 -64 -533 -149 -672 -188 l-253 -71 -292 126 c-161 70 -501 217 -756 328 l-464 201 -148 300 c-82 164 -149 304 -149 310 0 13 1176 250 1229 248 72 -3 72 -3 362 515 151 268 281 495 289 504 12 15 831 388 852 389 3 0 231 -108 505 -241z m-4127 -1541 c140 -149 481 -512 758 -807 276 -294 502 -537 502 -540 0 -3 -22 -18 -48 -32 -26 -14 -399 -220 -830 -458 l-783 -432 -632 -69 c-348 -39 -906 -100 -1241 -137 l-608 -67 -222 76 c-121 42 -410 142 -641 223 -231 81 -530 185 -665 231 -282 98 -283 99 -249 109 13 4 451 162 972 351 521 189 956 344 966 344 21 0 2 -12 1396 839 578 352 1055 641 1060 641 6 0 125 -122 265 -272z"/>
 <path d="M7468 7613 c7 -3 16 -2 19 1 4 3 -2 6 -13 5 -11 0 -14 -3 -6 -6z"/>
 <path d="M7129 7483 c-13 -16 -12 -17 4 -4 9 7 17 15 17 17 0 8 -8 3 -21 -13z"/>
 <path d="M7871 7094 c0 -11 3 -14 6 -6 3 7 2 16 -1 19 -3 4 -6 -2 -5 -13z"/>
 <path d="M7348 6753 c7 -3 16 -2 19 1 4 3 -2 6 -13 5 -11 0 -14 -3 -6 -6z"/>
 </g>
<g id="layer104" fill="#e15d34" stroke="none">
 <path d="M6068 12253 c7 -3 16 -2 19 1 4 3 -2 6 -13 5 -11 0 -14 -3 -6 -6z"/>
 <path d="M6123 12253 c4 -3 10 -3 14 0 3 4 0 7 -7 7 -7 0 -10 -3 -7 -7z"/>
 <path d="M5858 12243 c6 -2 18 -2 25 0 6 3 1 5 -13 5 -14 0 -19 -2 -12 -5z"/>
 <path d="M6163 12243 c4 -3 10 -3 14 0 3 4 0 7 -7 7 -7 0 -10 -3 -7 -7z"/>
 <path d="M6197 12239 c7 -7 15 -10 18 -7 3 3 -2 9 -12 12 -14 6 -15 5 -6 -5z"/>
 <path d="M5430 12230 l-35 -7 42 -2 c23 0 45 4 48 9 7 11 -3 11 -55 0z"/>
 <path d="M5653 12233 c9 -2 23 -2 30 0 6 3 -1 5 -18 5 -16 0 -22 -2 -12 -5z"/>
 <path d="M6245 12230 c3 -5 14 -10 23 -10 15 0 15 2 2 10 -20 13 -33 13 -25 0z"/>
 <path d="M5215 12220 c4 -6 11 -8 16 -5 14 9 11 15 -7 15 -8 0 -12 -5 -9 -10z"/>
 <path d="M5068 12213 c7 -3 16 -2 19 1 4 3 -2 6 -13 5 -11 0 -14 -3 -6 -6z"/>
 <path d="M4868 12203 c7 -3 16 -2 19 1 4 3 -2 6 -13 5 -11 0 -14 -3 -6 -6z"/>
 <path d="M6383 12203 c4 -3 10 -3 14 0 3 4 0 7 -7 7 -7 0 -10 -3 -7 -7z"/>
 <path d="M4658 12193 c6 -2 18 -2 25 0 6 3 1 5 -13 5 -14 0 -19 -2 -12 -5z"/>
 <path d="M6433 12193 c4 -3 10 -3 14 0 3 4 0 7 -7 7 -7 0 -10 -3 -7 -7z"/>
 <path d="M6477 12189 c7 -7 15 -10 18 -7 3 3 -2 9 -12 12 -14 6 -15 5 -6 -5z"/>
 <path d="M4200 12180 l-45 -7 57 -1 c31 -1 60 3 63 8 7 11 -6 11 -75 0z"/>
 <path d="M4443 12183 c9 -2 25 -2 35 0 9 3 1 5 -18 5 -19 0 -27 -2 -17 -5z"/>
 <path d="M6525 12180 c3 -5 14 -10 23 -10 15 0 15 2 2 10 -20 13 -33 13 -25 0z"/>
 <path d="M3868 12163 c7 -3 16 -2 19 1 4 3 -2 6 -13 5 -11 0 -14 -3 -6 -6z"/>
 <path d="M6613 12163 c4 -3 10 -3 14 0 3 4 0 7 -7 7 -7 0 -10 -3 -7 -7z"/>
 <path d="M3668 12153 c7 -3 16 -2 19 1 4 3 -2 6 -13 5 -11 0 -14 -3 -6 -6z"/>
 <path d="M6663 12153 c4 -3 10 -3 14 0 3 4 0 7 -7 7 -7 0 -10 -3 -7 -7z"/>
 <path d="M6698 12148 c5 -5 16 -8 23 -6 8 3 3 7 -10 11 -17 4 -21 3 -13 -5z"/>
 <path d="M3463 12143 c4 -3 10 -3 14 0 3 4 0 7 -7 7 -7 0 -10 -3 -7 -7z"/>
 <path d="M6745 12140 c3 -5 14 -10 23 -10 15 0 15 2 2 10 -20 13 -33 13 -25 0z"/>
 <path d="M6795 12130 c3 -5 18 -10 32 -10 32 0 28 5 -10 14 -19 4 -26 3 -22 -4z"/>
 <path d="M3361 12104 c-18 -8 -31 -17 -28 -20 5 -6 67 23 67 31 0 6 3 7 -39 -11z"/>
 <path d="M6893 12113 c4 -3 10 -3 14 0 3 4 0 7 -7 7 -7 0 -10 -3 -7 -7z"/>
 <path d="M6933 12103 c4 -3 10 -3 14 0 3 4 0 7 -7 7 -7 0 -10 -3 -7 -7z"/>
 <path d="M6977 12099 c7 -7 15 -10 18 -7 3 3 -2 9 -12 12 -14 6 -15 5 -6 -5z"/>
 <path d="M7025 12090 c3 -5 14 -10 23 -10 15 0 15 2 2 10 -20 13 -33 13 -25 0z"/>
 <path d="M3127 12008 c-92 -39 -166 -73 -163 -75 2 -3 37 10 78 27 40 17 93 39 118 49 116 48 131 55 136 63 7 11 22 16 -169 -64z"/>
 <path d="M5887 12074 c-2 -3 -87 -7 -188 -9 -101 -2 -242 -7 -314 -10 -71 -3 -168 -7 -215 -8 -47 -2 -152 -7 -235 -11 -82 -4 -193 -9 -245 -12 -52 -2 -157 -4 -233 -4 -76 0 -143 -3 -150 -7 -7 -4 -64 -9 -127 -10 -120 -2 -234 -6 -460 -19 -74 -4 -153 -7 -174 -6 -23 1 -53 -6 -71 -16 -17 -11 -43 -22 -58 -26 -15 -3 -51 -17 -80 -30 -28 -13 -164 -69 -302 -126 -137 -56 -263 -108 -280 -115 -16 -7 -93 -39 -170 -70 -77 -31 -150 -63 -162 -71 -12 -8 -31 -14 -42 -14 -19 0 -176 -168 -167 -178 6 -5 320 163 355 189 34 27 61 25 306 -27 l220 -46 243 71 c133 39 255 71 271 71 16 0 191 -31 388 -69 197 -38 500 -97 673 -130 173 -34 324 -63 336 -66 24 -5 873 -589 892 -613 19 -25 15 -85 -8 -110 -23 -24 -61 -37 -88 -30 -9 3 -201 132 -426 288 -224 155 -420 286 -435 291 -14 4 -213 44 -441 88 -228 44 -521 101 -651 126 l-236 46 -239 -72 c-131 -39 -255 -72 -274 -72 -19 -1 -121 18 -226 41 -105 23 -200 42 -211 42 -11 0 -175 -83 -364 -185 -200 -108 -355 -185 -370 -185 -20 0 -40 -15 -78 -59 -28 -32 -51 -62 -51 -66 0 -4 -10 -15 -23 -25 -20 -16 -22 -29 -25 -117 -4 -125 -9 -222 -18 -348 -3 -55 -8 -129 -10 -165 -3 -36 -7 -103 -10 -150 -9 -141 -10 -424 0 -445 5 -11 10 -29 11 -40 8 -67 28 -177 45 -252 11 -49 22 -110 25 -136 3 -27 8 -53 12 -60 4 -6 7 -20 8 -31 1 -26 19 -124 51 -281 23 -113 24 -121 7 -132 -9 -7 -23 -13 -30 -13 -7 0 -13 -4 -13 -9 0 -5 -10 -13 -22 -17 -12 -3 -30 -16 -39 -28 -17 -20 -18 -20 -31 -3 -12 15 -13 12 -10 -27 4 -42 -17 -85 -343 -713 -191 -367 -358 -688 -372 -712 l-25 -43 6 -790 c4 -490 10 -796 16 -808 6 -11 74 -43 182 -86 95 -36 211 -82 257 -100 94 -37 108 -40 147 -22 19 9 181 245 570 827 l543 814 107 83 107 83 56 -43 c70 -53 99 -69 46 -24 -81 68 -90 76 -85 80 3 3 31 25 63 51 l59 47 120 -93 c66 -50 159 -122 206 -159 48 -37 93 -67 100 -68 6 0 12 -4 12 -9 0 -8 17 -22 320 -256 96 -74 200 -155 230 -179 31 -24 66 -49 79 -57 13 -8 36 -25 51 -39 15 -14 136 -108 268 -210 186 -143 246 -195 267 -230 14 -25 39 -65 55 -90 16 -25 34 -54 40 -65 6 -11 24 -40 40 -65 16 -25 35 -56 42 -70 7 -14 23 -39 35 -56 13 -17 23 -34 23 -37 0 -4 20 -36 44 -71 24 -35 45 -68 47 -72 5 -12 60 -103 113 -189 l44 -69 -33 -12 c-19 -6 -41 -19 -50 -28 -29 -29 -55 -39 -70 -26 -11 9 -12 7 -9 -7 4 -14 -37 -43 -203 -144 -219 -133 -1686 -1027 -1957 -1193 l-158 -97 -1132 -410 c-622 -226 -1139 -418 -1148 -426 -39 -35 -31 -124 13 -151 17 -11 624 -225 1224 -432 77 -27 302 -105 499 -174 l359 -126 406 45 c749 83 1674 185 1921 211 225 25 249 29 290 55 25 15 349 195 720 399 371 205 744 410 828 457 85 46 165 86 179 87 44 5 63 31 63 86 0 34 4 50 13 50 7 0 49 -22 92 -48 44 -27 136 -82 205 -122 69 -40 141 -83 160 -96 19 -12 55 -28 80 -34 25 -6 63 -17 85 -25 22 -8 81 -26 130 -40 50 -14 110 -33 135 -40 112 -35 189 -59 240 -75 30 -9 89 -27 130 -40 41 -13 100 -31 130 -41 113 -36 159 -49 176 -49 10 0 66 15 124 34 58 19 146 46 195 61 50 14 115 34 145 44 30 10 96 31 145 46 50 15 115 35 145 45 30 10 91 28 135 41 l80 24 340 331 c187 181 406 395 487 473 160 155 173 174 222 331 15 47 32 94 37 105 5 11 18 47 28 80 11 33 34 98 51 145 17 47 44 121 59 165 16 44 43 121 61 170 17 50 44 128 60 175 16 47 43 123 60 170 62 171 130 364 184 525 21 61 26 107 40 375 18 331 46 845 72 1335 24 433 23 477 -2 550 -12 33 -34 101 -49 150 -15 50 -35 115 -44 145 -10 30 -31 96 -46 145 -15 50 -38 122 -50 160 -12 39 -34 111 -49 160 -15 50 -36 115 -46 145 -10 30 -30 96 -45 145 -15 50 -37 124 -50 165 -13 41 -36 113 -50 160 -15 47 -35 110 -45 140 -9 30 -30 96 -45 145 -32 107 -70 229 -95 305 -9 30 -30 96 -44 145 -15 50 -36 115 -46 145 -9 30 -32 102 -50 160 -17 58 -40 130 -50 160 -10 30 -30 96 -45 145 -51 171 -15 141 -326 280 -322 145 -345 156 -424 190 -33 14 -73 32 -90 40 -16 7 -253 114 -525 236 -272 122 -518 232 -546 245 -28 13 -55 24 -59 24 -4 0 -31 11 -59 25 -28 13 -67 26 -86 28 -19 3 -43 8 -53 12 -10 4 -21 5 -24 1 -3 -3 -11 -1 -18 4 -6 5 -36 11 -67 14 -31 3 -75 10 -98 16 -23 6 -45 9 -48 6 -3 -3 -10 -2 -16 3 -10 8 -119 29 -156 30 -8 0 -46 7 -83 16 -38 8 -73 13 -77 10 -5 -3 -11 -1 -14 4 -3 5 -34 12 -68 16 -35 5 -74 10 -88 12 -14 2 -32 5 -40 7 -9 1 -20 5 -26 8 -8 6 -88 19 -199 33 -11 1 -28 6 -38 10 -10 4 -21 5 -24 1 -3 -3 -12 -1 -19 5 -6 5 -36 12 -66 14 -29 3 -82 12 -117 20 -36 9 -71 13 -78 11 -7 -3 -15 -1 -18 3 -3 5 -29 12 -58 16 -28 3 -84 13 -124 21 -40 9 -76 13 -82 10 -5 -4 -12 -2 -15 3 -3 5 -36 12 -73 17 -38 4 -72 9 -78 10 -5 0 -18 4 -28 9 -10 4 -21 5 -24 1 -3 -3 -12 -1 -19 5 -6 5 -38 13 -71 16 -72 8 -320 13 -326 7z m-1821 -1469 c64 -19 122 -69 159 -136 67 -124 23 -273 -106 -355 -36 -22 -59 -28 -121 -32 -69 -4 -84 -2 -132 22 -88 43 -155 146 -156 237 0 111 78 225 180 259 67 23 111 25 176 5z m-1251 -1931 c226 -48 413 -90 417 -93 6 -6 224 -757 230 -795 2 -15 -99 -100 -457 -381 -304 -238 -465 -371 -474 -390 -8 -17 -238 -366 -512 -777 l-498 -747 -103 41 c-57 22 -133 51 -169 65 l-66 24 -8 717 -7 717 322 620 c178 341 346 663 374 714 l51 95 225 143 c151 96 232 142 245 139 11 -3 205 -44 430 -92z m5407 -1202 c142 -97 257 -180 258 -184 0 -4 -126 -118 -279 -252 l-280 -246 -228 -64 c-125 -35 -261 -73 -302 -85 l-73 -20 -262 136 c-143 76 -353 185 -466 244 -113 59 -205 112 -205 118 0 6 157 128 349 271 l350 260 440 0 441 0 257 -178z m1345 -1293 c274 -132 503 -245 508 -250 10 -10 17 -93 64 -714 12 -154 23 -292 26 -306 3 -21 -61 -122 -339 -530 l-344 -504 -418 -117 c-231 -64 -533 -149 -672 -188 l-253 -71 -292 126 c-161 70 -501 217 -756 328 l-464 201 -148 300 c-82 164 -149 304 -149 310 0 13 1176 250 1229 248 72 -3 72 -3 362 515 151 268 281 495 289 504 12 15 831 388 852 389 3 0 231 -108 505 -241z m-4127 -1541 c140 -149 481 -512 758 -807 276 -294 502 -537 502 -540 0 -3 -22 -18 -48 -32 -26 -14 -399 -220 -830 -458 l-783 -432 -632 -69 c-348 -39 -906 -100 -1241 -137 l-608 -67 -222 76 c-121 42 -410 142 -641 223 -231 81 -530 185 -665 231 -282 98 -283 99 -249 109 13 4 451 162 972 351 521 189 956 344 966 344 21 0 2 -12 1396 839 578 352 1055 641 1060 641 6 0 125 -122 265 -272z"/>
 <path d="M7468 7613 c7 -3 16 -2 19 1 4 3 -2 6 -13 5 -11 0 -14 -3 -6 -6z"/>
 <path d="M7129 7483 c-13 -16 -12 -17 4 -4 9 7 17 15 17 17 0 8 -8 3 -21 -13z"/>
 <path d="M7871 7094 c0 -11 3 -14 6 -6 3 7 2 16 -1 19 -3 4 -6 -2 -5 -13z"/>
 <path d="M7348 6753 c7 -3 16 -2 19 1 4 3 -2 6 -13 5 -11 0 -14 -3 -6 -6z"/>
 <path d="M7113 12073 c4 -3 10 -3 14 0 3 4 0 7 -7 7 -7 0 -10 -3 -7 -7z"/>
 <path d="M7163 12063 c4 -3 10 -3 14 0 3 4 0 7 -7 7 -7 0 -10 -3 -7 -7z"/>
 <path d="M7213 12053 c4 -3 10 -3 14 0 3 4 0 7 -7 7 -7 0 -10 -3 -7 -7z"/>
 <path d="M7257 12049 c7 -7 15 -10 18 -7 3 3 -2 9 -12 12 -14 6 -15 5 -6 -5z"/>
 <path d="M7305 12040 c3 -5 14 -10 23 -10 15 0 15 2 2 10 -20 13 -33 13 -25 0z"/>
 <path d="M7393 12023 c4 -3 10 -3 14 0 3 4 0 7 -7 7 -7 0 -10 -3 -7 -7z"/>
 <path d="M7443 12013 c4 -3 10 -3 14 0 3 4 0 7 -7 7 -7 0 -10 -3 -7 -7z"/>
 <path d="M7493 12003 c4 -3 10 -3 14 0 3 4 0 7 -7 7 -7 0 -10 -3 -7 -7z"/>
 <path d="M7537 11999 c7 -7 15 -10 18 -7 3 3 -2 9 -12 12 -14 6 -15 5 -6 -5z"/>
 <path d="M7575 11990 c3 -5 18 -10 33 -9 24 0 25 1 7 9 -28 12 -47 12 -40 0z"/>
 <path d="M7673 11973 c4 -3 10 -3 14 0 3 4 0 7 -7 7 -7 0 -10 -3 -7 -7z"/>
 <path d="M7805 11950 c3 -5 14 -10 23 -10 15 0 15 2 2 10 -20 13 -33 13 -25 0z"/>
 <path d="M7868 11938 c6 -6 18 -8 28 -6 14 3 12 5 -9 10 -19 3 -25 2 -19 -4z"/>
 <path d="M2895 11911 c-22 -11 -34 -20 -27 -20 14 -1 72 27 72 34 0 7 0 7 -45 -14z"/>
 <path d="M7993 11913 c4 -3 10 -3 14 0 3 4 0 7 -7 7 -7 0 -10 -3 -7 -7z"/>
 <path d="M8037 11909 c7 -7 15 -10 18 -7 3 3 -2 9 -12 12 -14 6 -15 5 -6 -5z"/>
 <path d="M8088 11898 c5 -5 16 -8 23 -6 8 3 3 7 -10 11 -17 4 -21 3 -13 -5z"/>
 <path d="M2727 11843 c-59 -25 -106 -48 -103 -50 2 -3 33 7 68 22 35 15 80 34 101 43 21 8 40 19 43 24 7 10 15 13 -109 -39z"/>
 <path d="M8223 11873 c4 -3 10 -3 14 0 3 4 0 7 -7 7 -7 0 -10 -3 -7 -7z"/>
 <path d="M8290 11867 c11 -11 254 -117 258 -112 3 2 -6 9 -19 14 -13 5 -63 27 -110 49 -83 38 -139 60 -129 49z"/>
 <path d="M2561 11774 c-18 -8 -31 -17 -28 -20 5 -6 67 23 67 31 0 6 3 7 -39 -11z"/>
 <path d="M2445 11725 c-27 -13 -44 -24 -37 -24 14 -1 92 36 92 44 0 6 3 7 -55 -20z"/>
 <path d="M8570 11745 c0 -2 17 -13 38 -24 40 -20 90 -37 82 -28 -9 9 -120 57 -120 52z"/>
 <path d="M2320 11675 c-30 -13 -48 -24 -40 -24 8 -1 38 10 65 23 64 31 47 31 -25 1z"/>
 <path d="M8700 11684 c0 -6 65 -34 77 -34 9 1 -58 39 -69 40 -5 0 -8 -2 -8 -6z"/>
 <path d="M8790 11645 c0 -5 56 -35 65 -35 3 0 4 4 1 9 -6 10 -66 33 -66 26z"/>
 <path d="M2196 11583 c-6 -14 -5 -15 5 -6 7 7 10 15 7 18 -3 3 -9 -2 -12 -12z"/>
 <path d="M8905 11590 c3 -5 11 -10 16 -10 6 0 7 5 4 10 -3 6 -11 10 -16 10 -6 0 -7 -4 -4 -10z"/>
 <path d="M8945 11570 c3 -5 14 -10 23 -10 15 0 15 2 2 10 -20 13 -33 13 -25 0z"/>
 <path d="M2147 11533 c-4 -3 -7 -11 -7 -17 0 -6 5 -5 12 2 6 6 9 14 7 17 -3 3 -9 2 -12 -2z"/>
 <path d="M9044 11525 c11 -8 27 -15 35 -15 10 1 7 6 -9 15 -33 19 -50 18 -26 0z"/>
 <path d="M2098 11473 c-30 -35 -32 -47 -5 -27 15 10 27 25 27 32 0 16 -4 15 -22 -5z"/>
 <path d="M9145 11480 c3 -5 14 -10 23 -10 15 0 15 2 2 10 -20 13 -33 13 -25 0z"/>
 <path d="M9267 11429 c7 -7 15 -10 18 -7 3 3 -2 9 -12 12 -14 6 -15 5 -6 -5z"/>
 <path d="M9317 11409 c7 -7 15 -10 18 -7 3 3 -2 9 -12 12 -14 6 -15 5 -6 -5z"/>
 <path d="M2028 11393 c-29 -34 -30 -48 -2 -21 15 15 26 30 23 33 -3 3 -13 -3 -21 -12z"/>
 <path d="M9350 11395 c0 -9 71 -37 78 -31 3 3 3 6 0 6 -3 0 -22 7 -42 15 -20 8 -36 13 -36 10z"/>
 <path d="M9445 11352 c14 -14 375 -175 380 -170 4 3 -102 53 -335 155 -30 14 -50 20 -45 15z"/>
 <path d="M1957 11313 c-4 -3 -7 -11 -7 -17 0 -6 5 -5 12 2 6 6 9 14 7 17 -3 3 -9 2 -12 -2z"/>
 <path d="M1904 11247 c-47 -54 -57 -67 -48 -67 11 0 78 80 72 86 -3 2 -13 -6 -24 -19z"/>
 <path d="M9840 11175 c0 -7 171 -85 184 -84 6 0 -23 16 -64 36 -92 43 -120 54 -120 48z"/>
 <path d="M1827 11163 c-4 -3 -7 -11 -7 -17 0 -6 5 -5 12 2 6 6 9 14 7 17 -3 3 -9 2 -12 -2z"/>
 <path d="M1770 11095 c-7 -9 -11 -18 -8 -20 3 -3 11 1 18 10 7 9 11 18 8 20 -3 3 -11 -1 -18 -10z"/>
 <path d="M10060 11075 c0 -7 58 -35 72 -35 7 1 -3 9 -22 20 -35 19 -50 24 -50 15z"/>
 <path d="M1705 11020 c-10 -11 -13 -20 -8 -20 13 0 38 29 31 35 -3 3 -13 -4 -23 -15z"/>
 <path d="M10184 11015 c11 -8 25 -15 30 -15 6 0 2 7 -8 15 -11 8 -25 15 -30 15 -6 0 -2 -7 8 -15z"/>
 <path d="M1643 10947 c-44 -48 -68 -86 -59 -94 3 -3 10 5 15 18 5 13 28 43 52 67 23 23 40 44 37 47 -3 3 -23 -14 -45 -38z"/>
 <path d="M10265 10980 c3 -5 11 -10 16 -10 6 0 7 5 4 10 -3 6 -11 10 -16 10 -6 0 -7 -4 -4 -10z"/>
 <path d="M10317 10959 c7 -7 15 -10 18 -7 3 3 -2 9 -12 12 -14 6 -15 5 -6 -5z"/>
 <path d="M10415 10920 c6 -10 64 -24 71 -17 3 2 -13 9 -36 15 -22 5 -38 6 -35 2z"/>
 <path d="M10513 10893 c4 -3 10 -3 14 0 3 4 0 7 -7 7 -7 0 -10 -3 -7 -7z"/>
 <path d="M10553 10883 c4 -3 10 -3 14 0 3 4 0 7 -7 7 -7 0 -10 -3 -7 -7z"/>
 <path d="M10615 10870 c3 -5 11 -10 16 -10 6 0 7 5 4 10 -3 6 -11 10 -16 10 -6 0 -7 -4 -4 -10z"/>
 <path d="M10668 10858 c5 -5 16 -8 23 -6 8 3 3 7 -10 11 -17 4 -21 3 -13 -5z"/>
 <path d="M10735 10840 c27 -12 43 -12 25 0 -8 5 -22 9 -30 9 -10 0 -8 -3 5 -9z"/>
 <path d="M10787 10829 c7 -7 15 -10 18 -7 3 3 -2 9 -12 12 -14 6 -15 5 -6 -5z"/>
 <path d="M10827 10819 c7 -7 15 -10 18 -7 3 3 -2 9 -12 12 -14 6 -15 5 -6 -5z"/>
 <path d="M1580 10804 c0 -8 5 -12 10 -9 6 4 8 11 5 16 -9 14 -15 11 -15 -7z"/>
 <path d="M10905 10800 c27 -12 43 -12 25 0 -8 5 -22 9 -30 9 -10 0 -8 -3 5 -9z"/>
 <path d="M10957 10789 c7 -7 15 -10 18 -7 3 3 -2 9 -12 12 -14 6 -15 5 -6 -5z"/>
 <path d="M10995 10780 c6 -10 64 -24 71 -17 3 2 -13 9 -36 15 -22 5 -38 6 -35 2z"/>
 <path d="M11161 10735 c14 -8 34 -26 43 -40 9 -14 22 -25 28 -25 7 0 -6 18 -27 40 -21 22 -46 40 -55 40 -9 -1 -5 -6 11 -15z"/>
 <path d="M10515 10688 c3 -18 18 -69 32 -113 39 -120 68 -212 93 -295 12 -41 33 -106 45 -145 23 -74 57 -184 101 -325 14 -47 34 -110 44 -140 10 -30 30 -95 45 -145 15 -49 37 -121 50 -160 12 -38 32 -104 44 -145 13 -41 33 -106 45 -145 13 -38 35 -110 51 -160 15 -49 38 -121 50 -160 12 -38 32 -104 45 -145 12 -41 33 -106 45 -145 12 -38 34 -110 50 -160 15 -49 36 -115 46 -145 9 -30 20 -67 23 -82 4 -16 10 -28 15 -28 4 0 64 59 132 132 68 73 316 336 552 585 235 249 427 456 427 460 0 8 -204 173 -214 173 -3 0 -18 13 -33 28 -39 40 -175 147 -195 155 -10 3 -18 13 -18 21 0 9 -9 20 -20 26 -11 6 -20 15 -20 21 0 13 -220 252 -341 371 -49 47 -89 91 -89 96 0 6 -29 37 -65 70 -36 33 -65 64 -65 69 0 5 -30 39 -67 74 -38 35 -70 69 -73 76 -8 18 -131 143 -141 143 -5 0 -9 7 -9 15 0 9 -19 19 -52 28 -119 31 -245 61 -268 64 -14 1 -63 13 -110 27 -47 13 -102 27 -123 31 l-39 6 7 -33z"/>
 <path d="M1582 10690 c0 -14 2 -19 5 -12 2 6 2 18 0 25 -3 6 -5 1 -5 -13z"/>
 <path d="M11250 10653 c0 -13 29 -38 35 -31 3 3 -4 13 -15 23 -11 10 -20 13 -20 8z"/>
 <path d="M1571 10544 c0 -11 3 -14 6 -6 3 7 2 16 -1 19 -3 4 -6 -2 -5 -13z"/>
 <path d="M11350 10540 c0 -5 5 -10 11 -10 5 0 7 5 4 10 -3 6 -8 10 -11 10 -2 0 -4 -4 -4 -10z"/>
 <path d="M11390 10504 c0 -6 14 -23 30 -39 17 -16 30 -24 30 -19 0 6 -13 23 -30 39 -16 16 -30 24 -30 19z"/>
 <path d="M1560 10410 c0 -7 3 -10 7 -7 3 4 3 10 0 14 -4 3 -7 0 -7 -7z"/>
 <path d="M11530 10354 c0 -6 14 -23 30 -39 17 -16 30 -24 30 -19 0 6 -13 23 -30 39 -16 16 -30 24 -30 19z"/>
 <path d="M1550 10270 c0 -7 3 -10 7 -7 3 4 3 10 0 14 -4 3 -7 0 -7 -7z"/>
 <path d="M11640 10234 c0 -5 23 -32 51 -59 28 -28 47 -41 41 -30 -14 26 -92 102 -92 89z"/>
 <path d="M11760 10105 c24 -33 124 -132 112 -110 -6 11 -36 45 -68 75 -32 30 -52 46 -44 35z"/>
 <path d="M1541 10055 c0 -11 -4 -31 -7 -45 -5 -19 -4 -22 5 -14 7 6 11 26 8 45 -2 19 -5 25 -6 14z"/>
 <path d="M11910 9942 c0 -12 19 -26 26 -19 2 2 -2 10 -11 17 -9 8 -15 8 -15 2z"/>
 <path d="M1532 9880 c0 -14 2 -19 5 -12 2 6 2 18 0 25 -3 6 -5 1 -5 -13z"/>
 <path d="M11960 9892 c0 -12 19 -26 26 -19 2 2 -2 10 -11 17 -9 8 -15 8 -15 2z"/>
 <path d="M12000 9851 c0 -5 5 -13 10 -16 6 -3 10 -2 10 4 0 5 -4 13 -10 16 -5 3 -10 2 -10 -4z"/>
 <path d="M12050 9790 c0 -5 5 -10 11 -10 5 0 7 5 4 10 -3 6 -8 10 -11 10 -2 0 -4 -4 -4 -10z"/>
 <path d="M1521 9744 c0 -11 3 -14 6 -6 3 7 2 16 -1 19 -3 4 -6 -2 -5 -13z"/>
 <path d="M12100 9744 c0 -12 68 -80 74 -73 2 2 -13 22 -35 44 -21 22 -39 35 -39 29z"/>
 <path d="M1520 9700 c0 -7 3 -10 7 -7 3 4 3 10 0 14 -4 3 -7 0 -7 -7z"/>
 <path d="M1526 9667 c3 -10 9 -15 12 -12 3 3 0 11 -7 18 -10 9 -11 8 -5 -6z"/>
 <path d="M12205 9640 c3 -5 11 -10 16 -10 6 0 7 5 4 10 -3 6 -11 10 -16 10 -6 0 -7 -4 -4 -10z"/>
 <path d="M1530 9623 c0 -4 5 -15 10 -23 8 -13 10 -13 10 2 0 9 -4 20 -10 23 -5 3 -10 3 -10 -2z"/>
 <path d="M12255 9600 c3 -5 11 -10 16 -10 6 0 7 5 4 10 -3 6 -11 10 -16 10 -6 0 -7 -4 -4 -10z"/>
 <path d="M12315 9550 c3 -5 11 -10 16 -10 6 0 7 5 4 10 -3 6 -11 10 -16 10 -6 0 -7 -4 -4 -10z"/>
 <path d="M1550 9530 c0 -7 3 -10 7 -7 3 4 3 10 0 14 -4 3 -7 0 -7 -7z"/>
 <path d="M12366 9511 c40 -38 136 -112 140 -108 5 5 -131 117 -142 117 -5 0 -4 -4 2 -9z"/>
 <path d="M1570 9440 c0 -7 3 -10 7 -7 3 4 3 10 0 14 -4 3 -7 0 -7 -7z"/>
 <path d="M1570 9413 c0 -4 5 -15 10 -23 8 -13 10 -13 10 2 0 9 -4 20 -10 23 -5 3 -10 3 -10 -2z"/>
 <path d="M12520 9392 c0 -11 69 -66 76 -60 2 3 -14 19 -36 37 -22 17 -40 28 -40 23z"/>
 <path d="M1586 9343 c9 -38 14 -42 14 -10 0 14 -5 29 -10 32 -7 4 -8 -3 -4 -22z"/>
 <path d="M12615 9310 c3 -5 11 -10 16 -10 6 0 7 5 4 10 -3 6 -11 10 -16 10 -6 0 -7 -4 -4 -10z"/>
 <path d="M1600 9270 c0 -7 3 -10 7 -7 3 4 3 10 0 14 -4 3 -7 0 -7 -7z"/>
 <path d="M12665 9270 c3 -5 11 -10 16 -10 6 0 7 5 4 10 -3 6 -11 10 -16 10 -6 0 -7 -4 -4 -10z"/>
 <path d="M12722 9224 c10 -10 20 -15 24 -12 3 4 -5 12 -18 18 -22 12 -22 12 -6 -6z"/>
 <path d="M1616 9187 c3 -10 9 -15 12 -12 3 3 0 11 -7 18 -10 9 -11 8 -5 -6z"/>
 <path d="M12775 9180 c3 -5 11 -10 16 -10 6 0 7 5 4 10 -3 6 -11 10 -16 10 -6 0 -7 -4 -4 -10z"/>
 <path d="M1620 9153 c0 -4 5 -15 10 -23 8 -13 10 -13 10 2 0 9 -4 20 -10 23 -5 3 -10 3 -10 -2z"/>
 <path d="M12830 9135 c7 -8 17 -15 22 -15 6 0 5 7 -2 15 -7 8 -17 15 -22 15 -6 0 -5 -7 2 -15z"/>
 <path d="M12585 9096 c-6 -8 -276 -295 -601 -639 l-590 -624 -13 -249 c-7 -137 -19 -366 -26 -509 -8 -143 -24 -435 -35 -650 -11 -214 -23 -434 -26 -488 l-7 -98 24 6 c13 3 119 21 234 41 116 20 274 47 352 60 79 14 207 35 285 49 79 13 206 35 283 49 125 22 394 69 825 143 270 46 414 71 782 134 l367 64 -6 25 c-3 14 -8 29 -11 34 -3 6 -6 19 -8 30 -3 36 -35 190 -42 200 -3 6 -7 19 -8 31 -1 11 -11 63 -23 115 -11 52 -27 129 -36 170 -8 41 -18 82 -22 90 -3 8 -7 20 -7 25 -1 6 -5 28 -9 50 -4 22 -10 54 -12 70 -2 17 -13 66 -24 110 -11 44 -31 134 -46 200 -15 66 -38 166 -51 222 -13 56 -24 111 -24 122 0 14 -30 43 -92 91 -51 39 -106 83 -123 98 -58 53 -422 342 -431 342 -5 0 -15 9 -22 20 -7 11 -16 20 -21 20 -4 0 -24 15 -44 34 -20 18 -145 121 -279 228 -134 107 -299 241 -368 297 -68 55 -127 101 -130 101 -3 0 -10 -6 -15 -14z"/>
 <path d="M12895 9085 c17 -14 40 -33 53 -43 12 -9 30 -24 40 -33 42 -38 113 -91 117 -88 5 6 -221 189 -232 189 -4 0 6 -11 22 -25z"/>
 <path d="M1636 9073 c9 -38 14 -42 14 -10 0 14 -5 29 -10 32 -7 4 -8 -3 -4 -22z"/>
 <path d="M1660 8960 c0 -7 3 -10 7 -7 3 4 3 10 0 14 -4 3 -7 0 -7 -7z"/>
 <path d="M1670 8910 c0 -7 3 -10 7 -7 3 4 3 10 0 14 -4 3 -7 0 -7 -7z"/>
 <path d="M13135 8890 c3 -5 11 -10 16 -10 6 0 7 5 4 10 -3 6 -11 10 -16 10 -6 0 -7 -4 -4 -10z"/>
 <path d="M1670 8883 c0 -4 5 -15 10 -23 8 -13 10 -13 10 2 0 9 -4 20 -10 23 -5 3 -10 3 -10 -2z"/>
 <path d="M13180 8857 c0 -7 181 -149 185 -145 3 2 -36 37 -85 76 -81 65 -100 78 -100 69z"/>
 <path d="M1700 8740 c0 -7 3 -10 7 -7 3 4 3 10 0 14 -4 3 -7 0 -7 -7z"/>
 <path d="M1710 8700 c0 -7 3 -10 7 -7 3 4 3 10 0 14 -4 3 -7 0 -7 -7z"/>
 <path d="M13385 8690 c3 -5 11 -10 16 -10 6 0 7 5 4 10 -3 6 -11 10 -16 10 -6 0 -7 -4 -4 -10z"/>
 <path d="M1716 8657 c3 -10 9 -15 12 -12 3 3 0 11 -7 18 -10 9 -11 8 -5 -6z"/>
 <path d="M13420 8660 c0 -5 5 -10 11 -10 5 0 7 5 4 10 -3 6 -8 10 -11 10 -2 0 -4 -4 -4 -10z"/>
 <path d="M13460 8631 c0 -6 10 -16 23 -22 12 -7 25 -17 29 -23 4 -6 10 -8 13 -5 3 4 -10 18 -30 33 -19 15 -35 22 -35 17z"/>
 <path d="M13545 8560 c3 -5 11 -10 16 -10 6 0 7 5 4 10 -3 6 -11 10 -16 10 -6 0 -7 -4 -4 -10z"/>
 <path d="M13595 8520 c3 -5 11 -10 16 -10 6 0 7 5 4 10 -3 6 -11 10 -16 10 -6 0 -7 -4 -4 -10z"/>
 <path d="M13640 8487 c0 -8 181 -149 185 -145 3 2 -36 37 -85 76 -82 66 -100 78 -100 69z"/>
 <path d="M13847 8319 c7 -7 15 -10 18 -7 3 3 -2 9 -12 12 -14 6 -15 5 -6 -5z"/>
 <path d="M13897 8279 c7 -7 15 -10 18 -7 3 3 -2 9 -12 12 -14 6 -15 5 -6 -5z"/>
 <path d="M13952 8234 c10 -10 20 -15 24 -12 3 4 -5 12 -18 18 -22 12 -22 12 -6 -6z"/>
 <path d="M14005 8190 c3 -5 11 -10 16 -10 6 0 7 5 4 10 -3 6 -11 10 -16 10 -6 0 -7 -4 -4 -10z"/>
 <path d="M14060 8145 c7 -8 17 -15 22 -15 6 0 5 7 -2 15 -7 8 -17 15 -22 15 -6 0 -5 -7 2 -15z"/>
 <path d="M14140 8080 c25 -22 49 -40 54 -40 6 0 23 -12 39 -27 26 -25 28 -25 18 -6 -6 13 -21 28 -34 34 -12 6 -41 27 -64 45 -58 47 -68 42 -13 -6z"/>
 <path d="M14261 7953 c-1 -12 4 -25 9 -28 12 -7 12 2 0 30 -8 19 -9 19 -9 -2z"/>
 <path d="M14270 7901 c0 -6 4 -13 10 -16 6 -3 7 1 4 9 -7 18 -14 21 -14 7z"/>
 <path d="M14280 7860 c0 -7 3 -10 7 -7 3 4 3 10 0 14 -4 3 -7 0 -7 -7z"/>
 <path d="M14290 7820 c0 -7 3 -10 7 -7 3 4 3 10 0 14 -4 3 -7 0 -7 -7z"/>
 <path d="M14300 7780 c0 -7 3 -10 7 -7 3 4 3 10 0 14 -4 3 -7 0 -7 -7z"/>
 <path d="M14310 7718 c0 -9 5 -20 10 -23 13 -8 13 5 0 25 -8 13 -10 13 -10 -2z"/>
 <path d="M14320 7671 c0 -6 4 -13 10 -16 6 -3 7 1 4 9 -7 18 -14 21 -14 7z"/>
 <path d="M14330 7631 c0 -6 4 -13 10 -16 6 -3 7 1 4 9 -7 18 -14 21 -14 7z"/>
 <path d="M14351 7543 c-1 -12 4 -25 9 -28 12 -7 12 2 0 30 -8 19 -9 19 -9 -2z"/>
 <path d="M14360 7491 c0 -6 4 -13 10 -16 6 -3 7 1 4 9 -7 18 -14 21 -14 7z"/>
 <path d="M14370 7450 c0 -7 3 -10 7 -7 3 4 3 10 0 14 -4 3 -7 0 -7 -7z"/>
 <path d="M14380 7410 c0 -7 3 -10 7 -7 3 4 3 10 0 14 -4 3 -7 0 -7 -7z"/>
 <path d="M14390 7370 c0 -7 3 -10 7 -7 3 4 3 10 0 14 -4 3 -7 0 -7 -7z"/>
 <path d="M14401 7313 c-1 -12 4 -25 9 -28 12 -7 12 2 0 30 -8 19 -9 19 -9 -2z"/>
 <path d="M14410 7261 c0 -6 4 -13 10 -16 6 -3 7 1 4 9 -7 18 -14 21 -14 7z"/>
 <path d="M14420 7221 c0 -6 4 -13 10 -16 6 -3 7 1 4 9 -7 18 -14 21 -14 7z"/>
 <path d="M14430 7180 c0 -7 3 -10 7 -7 3 4 3 10 0 14 -4 3 -7 0 -7 -7z"/>
 <path d="M14450 7078 c0 -9 5 -20 10 -23 13 -8 13 5 0 25 -8 13 -10 13 -10 -2z"/>
 <path d="M14460 7031 c0 -6 4 -13 10 -16 6 -3 7 1 4 9 -7 18 -14 21 -14 7z"/>
 <path d="M3075 6990 c3 -5 11 -10 16 -10 6 0 7 5 4 10 -3 6 -11 10 -16 10 -6 0 -7 -4 -4 -10z"/>
 <path d="M14470 6991 c0 -6 4 -13 10 -16 6 -3 7 1 4 9 -7 18 -14 21 -14 7z"/>
 <path d="M3140 6940 c19 -16 40 -29 45 -29 6 0 -6 13 -25 29 -19 16 -39 30 -45 30 -5 0 6 -13 25 -30z"/>
 <path d="M3205 6890 c3 -5 11 -10 16 -10 6 0 7 5 4 10 -3 6 -11 10 -16 10 -6 0 -7 -4 -4 -10z"/>
 <path d="M3256 6852 c39 -35 96 -74 100 -69 3 3 -10 15 -28 28 -18 13 -39 29 -46 36 -7 7 -19 13 -25 13 -7 0 -7 -3 -1 -8z"/>
 <path d="M14500 6851 c0 -6 4 -13 10 -16 6 -3 7 1 4 9 -7 18 -14 21 -14 7z"/>
 <path d="M14510 6811 c0 -6 4 -13 10 -16 6 -3 7 1 4 9 -7 18 -14 21 -14 7z"/>
 <path d="M14520 6770 c0 -7 3 -10 7 -7 3 4 3 10 0 14 -4 3 -7 0 -7 -7z"/>
 <path d="M3386 6752 c43 -37 94 -72 94 -63 0 6 -10 16 -22 22 -12 6 -31 20 -42 30 -11 11 -24 19 -30 19 -6 0 -6 -3 0 -8z"/>
 <path d="M14530 6730 c0 -7 3 -10 7 -7 3 4 3 10 0 14 -4 3 -7 0 -7 -7z"/>
 <path d="M14541 6673 c-1 -12 4 -25 9 -28 12 -7 12 2 0 30 -8 19 -9 19 -9 -2z"/>
 <path d="M3510 6655 c7 -8 17 -15 22 -15 6 0 5 7 -2 15 -7 8 -17 15 -22 15 -6 0 -5 -7 2 -15z"/>
 <path d="M3556 6621 c45 -40 156 -122 160 -118 3 2 -27 28 -65 58 -38 29 -68 56 -66 59 2 3 -6 7 -17 7 -12 1 -17 -2 -12 -6z"/>
 <path d="M14550 6621 c0 -5 5 -13 10 -16 6 -3 10 -2 10 4 0 5 -4 13 -10 16 -5 3 -10 2 -10 -4z"/>
 <path d="M14560 6581 c0 -6 4 -13 10 -16 6 -3 7 1 4 9 -7 18 -14 21 -14 7z"/>
 <path d="M14580 6500 c0 -7 3 -10 7 -7 3 4 3 10 0 14 -4 3 -7 0 -7 -7z"/>
 <path d="M3735 6480 c3 -5 11 -10 16 -10 6 0 7 5 4 10 -3 6 -11 10 -16 10 -6 0 -7 -4 -4 -10z"/>
 <path d="M3800 6430 c19 -16 40 -29 45 -29 6 0 -6 13 -25 29 -19 16 -39 30 -45 30 -5 0 6 -13 25 -30z"/>
 <path d="M14594 6430 c3 -19 11 -39 16 -44 5 -5 5 8 -1 30 -14 50 -24 60 -15 14z"/>
 <path d="M3860 6385 c0 -2 10 -10 23 -16 20 -11 21 -11 8 4 -13 16 -31 23 -31 12z"/>
 <path d="M3915 6340 c3 -5 11 -10 16 -10 6 0 7 5 4 10 -3 6 -11 10 -16 10 -6 0 -7 -4 -4 -10z"/>
 <path d="M14620 6321 c0 -6 4 -13 10 -16 6 -3 7 1 4 9 -7 18 -14 21 -14 7z"/>
 <path d="M3955 6310 c3 -5 11 -10 16 -10 6 0 7 5 4 10 -3 6 -11 10 -16 10 -6 0 -7 -4 -4 -10z"/>
 <path d="M3995 6280 c3 -5 11 -10 16 -10 6 0 7 5 4 10 -3 6 -11 10 -16 10 -6 0 -7 -4 -4 -10z"/>
 <path d="M14642 6283 c21 -47 61 -114 65 -110 5 6 -55 117 -64 117 -2 0 -3 -3 -1 -7z"/>
 <path d="M4060 6230 c14 -10 27 -17 29 -14 6 5 -31 33 -44 33 -5 1 1 -8 15 -19z"/>
 <path d="M14468 6204 c-4 -3 -68 -16 -145 -29 -244 -40 -1776 -304 -1828 -315 -27 -5 -171 -30 -320 -55 -148 -25 -333 -57 -410 -70 -77 -14 -218 -38 -313 -55 -95 -16 -176 -32 -181 -34 -4 -3 -18 -40 -31 -83 -12 -43 -26 -82 -30 -88 -5 -5 -13 -30 -20 -55 -6 -25 -18 -58 -26 -75 -7 -16 -24 -61 -38 -100 -48 -140 -146 -422 -176 -505 -66 -182 -79 -218 -108 -300 -16 -47 -44 -128 -62 -180 -17 -52 -35 -104 -40 -115 -11 -25 -59 -169 -57 -171 2 -2 443 -74 1032 -169 253 -41 485 -79 515 -85 30 -6 251 -42 490 -80 702 -112 1169 -188 1260 -204 47 -9 270 -45 495 -81 226 -36 415 -67 422 -70 12 -4 37 59 89 225 34 108 97 302 163 501 28 86 51 163 51 172 0 8 6 28 14 44 13 25 83 236 131 394 16 53 16 57 -3 90 -10 19 -33 59 -50 89 -16 30 -42 75 -56 100 -14 25 -58 101 -96 170 -39 69 -75 132 -80 140 -5 8 -39 69 -76 135 -36 66 -79 140 -94 165 -15 25 -41 70 -57 100 -17 30 -48 87 -70 125 -22 39 -54 95 -70 125 -69 125 -184 325 -195 337 -11 14 -21 16 -30 7z"/>
 <path d="M4125 6180 c10 -11 23 -20 28 -20 6 0 2 9 -8 20 -10 11 -23 20 -28 20 -6 0 -2 -9 8 -20z"/>
 <path d="M4175 6140 c3 -5 11 -10 16 -10 6 0 7 5 4 10 -3 6 -11 10 -16 10 -6 0 -7 -4 -4 -10z"/>
 <path d="M14730 6124 c0 -3 9 -19 20 -34 11 -15 23 -36 28 -46 11 -28 73 -134 78 -134 6 0 -18 47 -73 143 -41 71 -53 87 -53 71z"/>
 <path d="M4240 6091 c19 -16 37 -27 40 -25 5 6 -52 53 -65 54 -5 0 6 -13 25 -29z"/>
 <path d="M4295 6050 c3 -5 16 -15 28 -21 22 -12 22 -12 3 10 -19 21 -43 30 -31 11z"/>
 <path d="M4355 6000 c3 -5 11 -10 16 -10 6 0 7 5 4 10 -3 6 -11 10 -16 10 -6 0 -7 -4 -4 -10z"/>
 <path d="M4396 5972 c54 -46 106 -83 110 -80 5 6 -101 88 -113 88 -4 0 -3 -4 3 -8z"/>
 <path d="M14870 5887 c0 -13 81 -156 93 -164 5 -3 -5 20 -23 53 -53 92 -70 120 -70 111z"/>
 <path d="M4552 5843 c14 -16 42 -56 63 -91 20 -35 39 -61 42 -58 5 5 -26 58 -82 139 -15 20 -31 37 -38 37 -6 0 1 -12 15 -27z"/>
 <path d="M14970 5705 c0 -9 121 -220 132 -230 13 -12 16 -17 -61 123 -57 101 -71 123 -71 107z"/>
 <path d="M4671 5665 c0 -5 6 -19 14 -29 8 -11 15 -15 15 -10 0 6 -7 19 -15 30 -8 10 -14 15 -14 9z"/>
 <path d="M4720 5586 c0 -10 43 -77 47 -73 2 3 -6 21 -18 41 -19 33 -29 43 -29 32z"/>
 <path d="M4780 5486 c0 -10 52 -87 57 -82 2 2 -8 21 -22 42 -30 44 -35 50 -35 40z"/>
 <path d="M15110 5451 c0 -5 9 -19 20 -32 l21 -24 -16 33 c-15 31 -25 41 -25 23z"/>
 <path d="M4850 5371 c22 -43 90 -146 90 -136 0 6 -11 27 -25 47 -14 20 -25 41 -25 45 -1 4 -12 22 -26 38 -20 24 -23 25 -14 6z"/>
 <path d="M15150 5381 c0 -5 5 -13 10 -16 6 -3 10 -2 10 4 0 5 -4 13 -10 16 -5 3 -10 2 -10 -4z"/>
 <path d="M15180 5338 c0 -4 10 -24 21 -45 12 -21 31 -55 41 -76 11 -20 25 -40 31 -44 6 -3 -7 25 -28 63 -42 77 -65 112 -65 102z"/>
 <path d="M4961 5195 c0 -5 6 -19 14 -29 8 -11 15 -15 15 -10 0 6 -7 19 -15 30 -8 10 -14 15 -14 9z"/>
 <path d="M15290 5147 c0 -12 82 -158 86 -154 3 2 -16 40 -41 83 -25 43 -45 75 -45 71z"/>
 <path d="M5010 5111 c0 -5 5 -13 10 -16 6 -3 10 -2 10 4 0 5 -4 13 -10 16 -5 3 -10 2 -10 -4z"/>
 <path d="M15390 4966 c0 -10 40 -76 46 -76 3 0 -2 12 -10 28 -22 40 -36 58 -36 48z"/>
 <path d="M15440 4877 c0 -12 72 -137 83 -144 6 -3 -7 25 -28 63 -37 68 -55 94 -55 81z"/>
 <path d="M15527 4643 c-10 -19 -49 -145 -45 -148 2 -3 16 32 30 75 23 71 28 96 15 73z"/>
 <path d="M15461 4448 c-17 -47 -23 -73 -15 -65 10 9 34 87 28 87 -3 0 -8 -10 -13 -22z"/>
 <path d="M15429 4344 c-5 -15 -8 -29 -5 -31 2 -2 8 10 14 26 13 38 5 41 -9 5z"/>
 <path d="M15397 4253 c-4 -3 -7 -13 -7 -22 1 -13 3 -13 11 2 11 19 8 33 -4 20z"/>
 <path d="M15377 4183 c-10 -18 -39 -115 -35 -118 2 -3 14 25 25 60 19 58 23 80 10 58z"/>
 <path d="M15330 4040 c0 -7 3 -10 7 -7 3 4 3 10 0 14 -4 3 -7 0 -7 -7z"/>
 <path d="M15307 3973 c-4 -3 -7 -11 -7 -17 0 -6 5 -5 12 2 6 6 9 14 7 17 -3 3 -9 2 -12 -2z"/>
 <path d="M15271 3858 c-16 -43 -22 -68 -18 -68 3 0 12 20 20 45 16 45 14 65 -2 23z"/>
 <path d="M10150 3376 c-239 -233 -436 -429 -438 -435 -2 -6 8 -15 23 -21 14 -5 64 -28 111 -50 47 -22 87 -40 90 -40 2 0 47 -20 100 -45 52 -25 97 -45 99 -45 3 0 42 -17 87 -39 46 -21 211 -95 368 -165 157 -70 303 -136 325 -146 22 -11 67 -31 100 -46 33 -14 78 -35 100 -45 22 -10 65 -29 95 -42 137 -61 209 -94 343 -156 48 -23 91 -41 95 -41 4 0 23 -8 42 -19 19 -10 69 -33 110 -51 41 -17 98 -42 125 -55 93 -43 159 -73 410 -185 138 -61 273 -122 300 -135 28 -13 138 -62 245 -110 188 -84 226 -101 335 -150 28 -13 70 -32 95 -43 25 -11 89 -41 143 -66 54 -25 104 -46 110 -46 7 0 17 -4 23 -9 5 -5 47 -26 94 -46 80 -35 122 -54 232 -105 l48 -22 32 23 c41 28 210 152 383 281 196 146 234 174 435 322 102 74 200 149 219 166 19 16 38 30 42 30 16 0 19 19 9 66 -6 27 -12 69 -15 94 -3 25 -8 56 -11 70 -4 14 -6 34 -5 46 1 11 -3 40 -9 65 -6 24 -12 55 -15 69 -2 14 -6 39 -9 55 -3 17 -7 61 -10 99 -3 37 -10 74 -16 81 -5 6 -7 14 -4 17 3 3 -2 43 -11 89 -10 46 -17 98 -16 116 1 17 -3 34 -8 37 -5 3 -7 15 -4 26 3 11 2 28 -2 37 -4 10 -8 29 -10 43 -4 50 -17 135 -22 150 -3 8 -5 26 -4 40 3 59 35 52 -854 194 -121 20 -245 40 -275 46 -30 6 -251 42 -490 80 -417 67 -955 154 -1945 316 -253 41 -516 84 -585 95 -69 10 -136 21 -150 24 -22 4 -82 -51 -460 -419z"/>
 <path d="M15240 3760 c0 -7 3 -10 7 -7 3 4 3 10 0 14 -4 3 -7 0 -7 -7z"/>
 <path d="M15220 3705 c-14 -37 -24 -81 -16 -74 8 7 36 99 30 99 -3 0 -9 -11 -14 -25z"/>
 <path d="M15174 3564 c-8 -20 -13 -39 -10 -41 5 -5 12 10 31 65 10 29 -7 9 -21 -24z"/>
 <path d="M15155 3498 c-25 -67 -44 -132 -41 -135 2 -2 15 30 29 71 14 42 24 76 21 76 -3 0 -7 -6 -9 -12z"/>
 <path d="M15070 3246 c-15 -41 -10 -56 6 -17 8 18 13 36 10 39 -3 2 -10 -7 -16 -22z"/>
 <path d="M15061 3123 c-1 -12 4 -25 9 -28 12 -7 12 2 0 30 -8 19 -9 19 -9 -2z"/>
 <path d="M6920 3126 c0 -2 7 -7 16 -10 8 -3 12 -2 9 4 -6 10 -25 14 -25 6z"/>
 <path d="M6970 3095 c0 -2 18 -14 40 -25 49 -25 53 -19 6 9 -33 21 -46 25 -46 16z"/>
 <path d="M15070 3051 c0 -6 4 -13 10 -16 6 -3 7 1 4 9 -7 18 -14 21 -14 7z"/>
 <path d="M7060 3045 c0 -2 10 -10 23 -16 20 -11 21 -11 8 4 -13 16 -31 23 -31 12z"/>
 <path d="M7130 2999 c29 -19 70 -39 70 -34 0 7 -63 45 -75 45 -5 0 -3 -5 5 -11z"/>
 <path d="M15080 2990 c0 -7 3 -10 7 -7 3 4 3 10 0 14 -4 3 -7 0 -7 -7z"/>
 <path d="M7210 2956 c0 -8 122 -78 127 -73 2 3 -22 20 -54 38 -69 40 -73 42 -73 35z"/>
 <path d="M15090 2940 c0 -7 3 -10 7 -7 3 4 3 10 0 14 -4 3 -7 0 -7 -7z"/>
 <path d="M15100 2880 c0 -7 3 -10 7 -7 3 4 3 10 0 14 -4 3 -7 0 -7 -7z"/>
 <path d="M7391 2839 c24 -18 54 -41 67 -52 12 -11 22 -16 22 -10 0 10 -112 93 -126 93 -4 0 13 -14 37 -31z"/>
 <path d="M9470 2788 c-39 -11 -167 -51 -250 -78 -30 -9 -86 -27 -125 -38 -130 -39 -240 -74 -293 -93 -30 -10 -62 -19 -73 -19 -34 0 -20 -16 59 -68 42 -28 120 -81 172 -116 52 -36 131 -90 175 -120 44 -30 123 -84 175 -120 52 -36 140 -96 194 -133 55 -38 133 -92 175 -120 42 -29 112 -77 156 -107 44 -30 116 -80 160 -111 44 -30 131 -90 194 -133 62 -42 139 -95 171 -117 32 -22 104 -71 161 -110 178 -121 381 -261 524 -360 40 -27 117 -80 171 -117 55 -37 137 -94 184 -126 47 -32 121 -82 165 -111 44 -30 90 -63 103 -74 27 -26 115 -38 282 -42 63 -1 185 -6 270 -10 85 -4 198 -9 250 -12 52 -2 156 -6 230 -9 74 -3 194 -7 265 -9 72 -1 195 -6 275 -9 353 -17 348 -17 364 13 17 33 94 177 136 256 18 33 46 84 62 113 37 65 36 66 -82 117 -47 20 -107 47 -135 60 -27 13 -72 33 -100 45 -60 27 -126 57 -215 98 -36 16 -128 58 -205 92 -77 34 -162 72 -190 85 -27 13 -273 123 -545 245 -272 122 -513 230 -535 240 -22 11 -67 31 -100 46 -33 14 -78 35 -100 45 -22 10 -67 30 -100 45 -33 14 -78 35 -100 45 -22 10 -67 30 -100 45 -33 15 -82 37 -110 49 -27 13 -72 33 -100 45 -27 12 -58 26 -67 31 -9 5 -124 56 -255 115 -131 58 -271 121 -311 140 -40 19 -75 34 -77 34 -3 0 -42 17 -87 39 -313 146 -739 331 -759 330 -13 -1 -40 -6 -59 -11z"/>
 <path d="M15110 2788 c0 -9 5 -20 10 -23 13 -8 13 5 0 25 -8 13 -10 13 -10 -2z"/>
 <path d="M7525 2734 c61 -53 87 -62 30 -10 -27 25 -54 45 -60 45 -5 0 8 -16 30 -35z"/>
 <path d="M15120 2721 c0 -6 4 -13 10 -16 6 -3 7 1 4 9 -7 18 -14 21 -14 7z"/>
 <path d="M7895 2661 c33 -32 549 -442 564 -449 8 -3 26 -17 40 -32 14 -14 94 -80 176 -146 83 -66 222 -178 310 -248 88 -71 168 -131 178 -133 9 -3 17 -9 17 -13 0 -5 44 -43 97 -87 54 -43 111 -90 128 -105 16 -16 33 -28 37 -28 4 0 13 -6 20 -13 39 -38 408 -327 417 -327 6 0 11 -4 11 -8 0 -5 45 -45 99 -89 97 -78 131 -96 296 -158 39 -14 90 -34 115 -44 25 -11 77 -31 115 -46 39 -15 95 -38 126 -51 31 -13 66 -24 77 -24 12 0 23 -4 26 -9 7 -10 185 -81 206 -81 8 0 24 -7 34 -15 10 -8 42 -22 70 -30 28 -9 65 -23 81 -31 17 -8 94 -39 173 -69 115 -45 150 -54 178 -49 19 3 34 10 32 14 -2 4 -34 29 -73 55 -38 27 -108 74 -155 106 -282 194 -447 307 -534 366 -55 38 -125 86 -157 108 -31 22 -110 76 -175 120 -64 44 -143 98 -175 120 -53 38 -121 84 -349 239 -52 36 -131 90 -175 121 -44 30 -116 80 -160 110 -44 30 -123 84 -175 120 -52 35 -131 89 -175 119 -44 30 -123 84 -175 121 -52 36 -139 96 -194 133 -54 37 -131 90 -171 117 -213 146 -280 187 -333 200 -31 9 -75 22 -97 29 -22 8 -80 27 -130 42 -49 14 -117 35 -149 45 -79 25 -97 25 -71 0z"/>
 <path d="M7615 2660 c3 -5 11 -10 16 -10 6 0 7 5 4 10 -3 6 -11 10 -16 10 -6 0 -7 -4 -4 -10z"/>
 <path d="M15130 2660 c0 -7 3 -10 7 -7 3 4 3 10 0 14 -4 3 -7 0 -7 -7z"/>
 <path d="M7665 2620 c3 -5 11 -10 16 -10 6 0 7 5 4 10 -3 6 -11 10 -16 10 -6 0 -7 -4 -4 -10z"/>
 <path d="M15140 2610 c0 -7 3 -10 7 -7 3 4 3 10 0 14 -4 3 -7 0 -7 -7z"/>
 <path d="M7720 2576 c0 -2 7 -7 16 -10 8 -3 12 -2 9 4 -6 10 -25 14 -25 6z"/>
 <path d="M15150 2532 c0 -17 4 -34 10 -37 6 -4 7 6 3 27 -8 44 -13 48 -13 10z"/>
 <path d="M7770 2536 c0 -2 7 -7 16 -10 8 -3 12 -2 9 4 -6 10 -25 14 -25 6z"/>
 <path d="M7810 2505 c0 -2 10 -10 23 -16 20 -11 21 -11 8 4 -13 16 -31 23 -31 12z"/>
 <path d="M7866 2462 c64 -56 134 -107 134 -99 0 6 -127 107 -136 107 -4 0 -4 -4 2 -8z"/>
 <path d="M15160 2458 c0 -9 5 -20 10 -23 13 -8 13 5 0 25 -8 13 -10 13 -10 -2z"/>
 <path d="M15170 2396 c0 -8 4 -17 9 -20 5 -4 7 3 4 14 -6 23 -13 26 -13 6z"/>
 <path d="M8010 2345 c0 -2 10 -10 23 -16 20 -11 21 -11 8 4 -13 16 -31 23 -31 12z"/>
 <path d="M15180 2340 c0 -7 3 -10 7 -7 3 4 3 10 0 14 -4 3 -7 0 -7 -7z"/>
 <path d="M8075 2290 c3 -5 11 -10 16 -10 6 0 7 5 4 10 -3 6 -11 10 -16 10 -6 0 -7 -4 -4 -10z"/>
 <path d="M15190 2280 c0 -7 3 -10 7 -7 3 4 3 10 0 14 -4 3 -7 0 -7 -7z"/>
 <path d="M8116 2262 c61 -52 114 -92 114 -85 0 9 -104 93 -116 93 -5 0 -4 -4 2 -8z"/>
 <path d="M15200 2202 c0 -17 4 -34 10 -37 6 -4 7 6 3 27 -8 44 -13 48 -13 10z"/>
 <path d="M8249 2156 c8 -9 24 -22 35 -28 19 -10 20 -10 7 6 -8 9 -24 22 -35 28 -19 10 -20 10 -7 -6z"/>
 <path d="M15210 2128 c0 -9 5 -20 10 -23 13 -8 13 5 0 25 -8 13 -10 13 -10 -2z"/>
 <path d="M8310 2105 c0 -2 10 -10 23 -16 20 -11 21 -11 8 4 -13 16 -31 23 -31 12z"/>
 <path d="M15220 2070 c0 -7 3 -10 7 -7 3 4 3 10 0 14 -4 3 -7 0 -7 -7z"/>
 <path d="M8366 2062 c51 -45 104 -82 104 -73 0 6 -3 11 -8 11 -4 0 -25 16 -47 35 -22 19 -44 35 -49 35 -6 0 -6 -3 0 -8z"/>
 <path d="M15230 2010 c0 -7 3 -10 7 -7 3 4 3 10 0 14 -4 3 -7 0 -7 -7z"/>
 <path d="M8500 1954 c8 -8 23 -20 34 -26 18 -10 17 -7 -4 15 -27 28 -51 38 -30 11z"/>
 <path d="M8560 1905 c0 -2 10 -10 23 -16 20 -11 21 -11 8 4 -13 16 -31 23 -31 12z"/>
 <path d="M15250 1868 c0 -9 5 -20 10 -23 13 -8 13 5 0 25 -8 13 -10 13 -10 -2z"/>
 <path d="M8610 1865 c0 -2 10 -10 23 -16 20 -11 21 -11 8 4 -13 16 -31 23 -31 12z"/>
 <path d="M8660 1825 c0 -2 10 -10 23 -16 20 -11 21 -11 8 4 -13 16 -31 23 -31 12z"/>
 <path d="M15257 1793 c-4 -3 -7 -11 -7 -17 0 -6 5 -5 12 2 6 6 9 14 7 17 -3 3 -9 2 -12 -2z"/>
 <path d="M8725 1770 c3 -5 11 -10 16 -10 6 0 7 5 4 10 -3 6 -11 10 -16 10 -6 0 -7 -4 -4 -10z"/>
 <path d="M15200 1730 c-14 -11 -21 -20 -17 -20 5 0 20 9 34 20 14 11 22 20 17 20 -5 0 -20 -9 -34 -20z"/>
 <path d="M8775 1730 c3 -5 11 -10 16 -10 6 0 7 5 4 10 -3 6 -11 10 -16 10 -6 0 -7 -4 -4 -10z"/>
 <path d="M8845 1676 c22 -19 42 -32 45 -29 6 6 -61 62 -75 63 -5 0 8 -16 30 -34z"/>
 <path d="M15102 1658 c-23 -17 -40 -34 -37 -36 2 -2 25 12 51 32 26 20 43 36 37 36 -5 0 -28 -14 -51 -32z"/>
 <path d="M8940 1600 c25 -22 50 -39 55 -39 6 0 -10 17 -35 39 -25 22 -49 39 -55 39 -5 0 10 -17 35 -39z"/>
 <path d="M15010 1590 c-14 -11 -21 -20 -17 -20 5 0 20 9 34 20 14 11 22 20 17 20 -5 0 -20 -9 -34 -20z"/>
 <path d="M9020 1535 c7 -8 17 -15 22 -15 6 0 5 7 -2 15 -7 8 -17 15 -22 15 -6 0 -5 -7 2 -15z"/>
 <path d="M14912 1518 c-23 -17 -40 -34 -37 -36 2 -2 25 12 51 32 26 20 43 36 37 36 -5 0 -28 -14 -51 -32z"/>
 <path d="M9090 1479 c54 -43 80 -60 80 -52 -1 10 -84 73 -96 73 -5 0 2 -9 16 -21z"/>
 <path d="M14815 1444 c-16 -14 -21 -21 -10 -15 30 14 61 40 50 41 -5 0 -23 -12 -40 -26z"/>
 <path d="M14722 1378 c-23 -17 -40 -34 -37 -36 2 -2 25 12 51 32 26 20 43 36 37 36 -5 0 -28 -14 -51 -32z"/>
 <path d="M9215 1380 c10 -11 23 -20 28 -20 6 0 1 9 -11 20 -12 11 -24 20 -28 20 -4 0 1 -9 11 -20z"/>
 <path d="M9260 1345 c0 -2 10 -10 23 -16 20 -11 21 -11 8 4 -13 16 -31 23 -31 12z"/>
 <path d="M14625 1305 c-16 -13 -25 -24 -20 -24 6 0 24 11 40 24 17 14 26 25 20 25 -5 0 -23 -11 -40 -25z"/>
 <path d="M9310 1305 c0 -2 10 -10 23 -16 20 -11 21 -11 8 4 -13 16 -31 23 -31 12z"/>
 <path d="M9370 1255 c7 -8 17 -15 22 -15 6 0 5 7 -2 15 -7 8 -17 15 -22 15 -6 0 -5 -7 2 -15z"/>
 <path d="M14492 1208 c-45 -34 -80 -63 -78 -65 2 -3 42 23 88 57 97 72 94 70 82 70 -5 0 -46 -28 -92 -62z"/>
 <path d="M9425 1210 c3 -5 11 -10 16 -10 6 0 7 5 4 10 -3 6 -11 10 -16 10 -6 0 -7 -4 -4 -10z"/>
 <path d="M9479 1167 c7 -7 14 -8 21 -1 6 6 2 10 -12 11 -16 2 -18 -1 -9 -10z"/>
 <path d="M9520 1137 c46 -42 172 -139 176 -135 5 6 -171 148 -183 148 -4 0 -1 -6 7 -13z"/>
 <path d="M14368 1117 c-7 -7 -43 -34 -80 -61 -37 -26 -71 -52 -74 -58 -9 -15 5 -6 96 60 91 67 97 72 83 72 -6 0 -18 -6 -25 -13z"/>
 <path d="M9725 970 c3 -5 11 -10 16 -10 6 0 7 5 4 10 -3 6 -11 10 -16 10 -6 0 -7 -4 -4 -10z"/>
 <path d="M14093 914 c-35 -25 -63 -50 -63 -55 0 -5 28 12 63 38 78 58 84 63 72 63 -6 -1 -38 -21 -72 -46z"/>
 <path d="M9776 932 c62 -55 164 -131 164 -123 0 6 -12 19 -27 28 -15 10 -35 25 -44 33 -43 39 -84 70 -93 70 -6 0 -6 -3 0 -8z"/>
 <path d="M14000 829 c0 -5 5 -7 10 -4 6 3 10 8 10 11 0 2 -4 4 -10 4 -5 0 -10 -5 -10 -11z"/>
 <path d="M13950 738 c-24 -43 -41 -85 -27 -67 13 16 67 119 63 119 -3 0 -19 -24 -36 -52z"/>
 <path d="M9990 757 c8 -8 130 -56 130 -52 0 8 -74 42 -105 49 -16 4 -28 5 -25 3z"/>
 <path d="M10170 686 c28 -17 50 -21 35 -7 -6 5 -21 12 -35 15 l-25 7 25 -15z"/>
 <path d="M10220 667 c8 -9 110 -47 110 -41 0 5 -49 27 -90 39 -14 4 -23 5 -20 2z"/>
 <path d="M13889 628 c-6 -12 -32 -60 -56 -106 -25 -46 -43 -85 -41 -87 2 -2 29 44 61 102 32 58 56 108 53 110 -2 3 -10 -6 -17 -19z"/>
 <path d="M10380 607 c8 -8 100 -47 100 -42 0 3 -12 11 -27 18 -32 17 -81 32 -73 24z"/>
 <path d="M10515 550 c3 -5 11 -10 16 -10 6 0 7 5 4 10 -3 6 -11 10 -16 10 -6 0 -7 -4 -4 -10z"/>
 <path d="M10560 536 c0 -2 7 -7 16 -10 8 -3 12 -2 9 4 -6 10 -25 14 -25 6z"/>
 <path d="M10611 515 c9 -9 79 -35 79 -30 0 3 -16 13 -35 21 -34 14 -52 18 -44 9z"/>
 <path d="M10730 466 c28 -17 50 -21 35 -7 -6 5 -21 12 -35 15 l-25 7 25 -15z"/>
 <path d="M10791 446 c2 -2 15 -9 29 -15 24 -11 24 -11 6 3 -16 13 -49 24 -35 12z"/>
 <path d="M10860 416 c0 -2 15 -9 33 -15 29 -10 30 -9 13 4 -18 14 -46 20 -46 11z"/>
 <path d="M13756 381 c-23 -43 -19 -52 5 -13 12 18 19 35 16 38 -3 3 -13 -8 -21 -25z"/>
 <path d="M10942 385 c3 -3 34 -17 69 -30 35 -14 59 -21 53 -15 -6 6 -35 19 -65 30 -56 21 -66 23 -57 15z"/>
 <path d="M11090 326 c0 -2 15 -9 33 -15 29 -10 30 -9 13 4 -18 14 -46 20 -46 11z"/>
 <path d="M13715 299 c-9 -17 -14 -33 -11 -36 3 -3 10 7 16 22 6 15 13 32 16 36 3 5 3 9 0 9 -3 0 -13 -14 -21 -31z"/>
 <path d="M11635 258 c-107 -48 -175 -89 -85 -50 86 37 215 100 205 100 -5 0 -59 -22 -120 -50z"/>
 <path d="M11928 303 c6 -2 18 -2 25 0 6 3 1 5 -13 5 -14 0 -19 -2 -12 -5z"/>
 <path d="M11182 290 c27 -17 100 -41 93 -30 -3 5 -20 13 -38 19 -18 5 -41 12 -52 16 -18 6 -18 5 -3 -5z"/>
 <path d="M12148 293 c7 -3 16 -2 19 1 4 3 -2 6 -13 5 -11 0 -14 -3 -6 -6z"/>
 <path d="M12368 283 c7 -3 16 -2 19 1 4 3 -2 6 -13 5 -11 0 -14 -3 -6 -6z"/>
 <path d="M12671 276 c11 -9 130 -15 124 -6 -3 6 -34 10 -67 10 -34 0 -59 -2 -57 -4z"/>
 <path d="M12963 263 c9 -2 25 -2 35 0 9 3 1 5 -18 5 -19 0 -27 -2 -17 -5z"/>
 <path d="M13188 253 c6 -2 18 -2 25 0 6 3 1 5 -13 5 -14 0 -19 -2 -12 -5z"/>
 <path d="M13408 243 c7 -3 16 -2 19 1 4 3 -2 6 -13 5 -11 0 -14 -3 -6 -6z"/>
 <path d="M13655 240 c-13 -6 -15 -9 -5 -9 8 0 22 4 30 9 18 12 2 12 -25 0z"/>
 <path d="M11321 236 c12 -12 135 -56 153 -55 20 1 20 1 1 6 -11 2 -48 15 -82 29 -58 23 -82 29 -72 20z"/>
 <path d="M13608 233 c7 -3 16 -2 19 1 4 3 -2 6 -13 5 -11 0 -14 -3 -6 -6z"/>
 </g>
<g id="layer105" fill="#7f7f7f" stroke="none">
 <path d="M5700 12064 c-162 -7 -578 -25 -925 -39 -346 -14 -772 -32 -945 -40 l-315 -14 -505 -209 c-278 -115 -539 -223 -581 -241 -62 -26 -85 -42 -120 -84 -24 -28 -55 -65 -68 -80 l-25 -30 35 18 c104 54 297 161 318 177 34 26 61 24 306 -28 l220 -46 243 71 c133 39 255 71 271 71 16 0 191 -31 388 -69 197 -38 500 -97 673 -130 173 -34 324 -63 336 -66 24 -5 873 -589 892 -613 19 -25 15 -85 -8 -110 -23 -24 -61 -37 -88 -30 -9 3 -201 132 -426 288 -224 155 -420 286 -435 291 -14 4 -213 44 -441 88 -228 44 -521 101 -651 126 l-236 46 -239 -72 c-131 -39 -255 -72 -274 -72 -19 -1 -121 18 -226 41 -105 23 -200 42 -211 42 -11 0 -175 -83 -364 -185 -189 -102 -353 -185 -365 -185 -15 0 -45 -27 -95 -86 l-73 -86 -22 -351 c-12 -194 -24 -406 -28 -472 -4 -66 -9 -149 -12 -185 -6 -62 3 -128 41 -315 8 -38 28 -146 45 -240 17 -93 47 -250 66 -349 19 -98 34 -186 34 -196 0 -10 -24 -32 -57 -53 -81 -52 -103 -72 -103 -97 0 -18 -629 -1245 -717 -1399 l-25 -43 6 -790 c4 -490 10 -796 16 -808 6 -11 74 -43 182 -86 95 -36 211 -82 257 -100 94 -37 108 -40 147 -22 19 9 181 245 569 826 l544 815 177 138 c98 77 181 139 185 139 4 0 238 -179 521 -397 282 -218 645 -499 807 -625 l295 -227 257 -418 257 -418 -26 -9 c-15 -5 -51 -24 -79 -42 -29 -19 -53 -30 -53 -26 0 4 -4 2 -8 -4 -6 -10 -354 -224 -1307 -804 -187 -114 -493 -300 -679 -414 l-339 -207 -1131 -410 c-622 -226 -1139 -418 -1148 -426 -39 -35 -31 -124 13 -151 17 -11 624 -225 1224 -432 77 -27 302 -105 499 -174 l359 -126 406 45 c749 83 1674 185 1921 211 225 25 249 29 290 55 37 22 877 486 1545 854 83 45 167 88 187 94 53 17 61 32 56 100 l-4 58 70 -41 c39 -23 159 -95 268 -159 194 -116 229 -131 433 -192 50 -14 110 -33 135 -40 112 -35 189 -59 240 -75 30 -9 89 -27 130 -40 41 -13 100 -31 130 -41 113 -36 159 -49 176 -49 10 0 66 15 124 34 58 19 146 46 195 61 50 14 115 34 145 44 30 10 96 31 145 46 50 15 115 35 145 45 30 10 91 28 135 41 l80 24 340 331 c187 181 406 395 487 473 160 155 173 174 222 331 15 47 32 94 37 105 5 11 18 47 28 80 11 33 34 98 51 145 17 47 44 121 59 165 16 44 43 121 61 170 17 50 44 128 60 175 16 47 43 123 60 170 62 171 130 364 184 525 21 61 26 107 40 375 18 331 46 845 72 1335 24 433 23 477 -2 550 -12 33 -34 101 -49 150 -15 50 -35 115 -44 145 -10 30 -31 96 -46 145 -15 50 -38 122 -50 160 -12 39 -34 111 -49 160 -15 50 -36 115 -46 145 -10 30 -30 96 -45 145 -15 50 -37 124 -50 165 -13 41 -36 113 -50 160 -15 47 -35 110 -45 140 -9 30 -30 96 -45 145 -32 107 -70 229 -95 305 -9 30 -30 96 -44 145 -15 50 -36 115 -46 145 -9 30 -32 102 -50 160 -17 58 -40 130 -50 160 -10 30 -30 96 -45 145 -14 50 -32 103 -39 119 -11 26 -109 72 -1024 482 l-1013 454 -357 65 c-196 35 -483 87 -637 114 -154 28 -481 86 -727 130 -245 45 -468 80 -495 80 -26 -1 -181 -8 -343 -15z m-1634 -1459 c64 -19 122 -69 159 -136 67 -124 23 -273 -106 -355 -36 -22 -59 -28 -121 -32 -69 -4 -84 -2 -132 22 -88 43 -155 146 -156 237 0 111 78 225 180 259 67 23 111 25 176 5z m-1251 -1931 c226 -48 413 -90 417 -93 6 -6 224 -757 230 -795 2 -15 -99 -100 -457 -381 -304 -238 -465 -371 -474 -390 -8 -17 -238 -366 -512 -777 l-498 -747 -103 41 c-57 22 -133 51 -169 65 l-66 24 -8 717 -7 717 322 620 c178 341 346 663 374 714 l51 95 225 143 c151 96 232 142 245 139 11 -3 205 -44 430 -92z m5407 -1202 c142 -97 257 -180 258 -184 0 -4 -126 -118 -279 -252 l-280 -246 -228 -64 c-125 -35 -261 -73 -302 -85 l-73 -20 -262 136 c-143 76 -353 185 -466 244 -113 59 -205 112 -205 118 0 6 157 128 349 271 l350 260 440 0 441 0 257 -178z m1345 -1293 c274 -132 503 -245 508 -250 10 -10 17 -93 64 -714 12 -154 23 -292 26 -306 3 -21 -61 -122 -339 -530 l-344 -504 -418 -117 c-231 -64 -533 -149 -672 -188 l-253 -71 -292 126 c-161 70 -501 217 -756 328 l-464 201 -148 300 c-82 164 -149 304 -149 310 0 13 1176 250 1229 248 72 -3 72 -3 362 515 151 268 281 495 289 504 12 15 831 388 852 389 3 0 231 -108 505 -241z m-4127 -1541 c140 -149 481 -512 758 -807 276 -294 502 -537 502 -540 0 -3 -22 -18 -48 -32 -26 -14 -399 -220 -830 -458 l-783 -432 -632 -69 c-348 -39 -906 -100 -1241 -137 l-608 -67 -222 76 c-121 42 -410 142 -641 223 -231 81 -530 185 -665 231 -282 98 -283 99 -249 109 13 4 451 162 972 351 521 189 956 344 966 344 21 0 2 -12 1396 839 578 352 1055 641 1060 641 6 0 125 -122 265 -272z"/>
 <path d="M7468 7613 c7 -3 16 -2 19 1 4 3 -2 6 -13 5 -11 0 -14 -3 -6 -6z"/>
 <path d="M7129 7483 c-13 -16 -12 -17 4 -4 9 7 17 15 17 17 0 8 -8 3 -21 -13z"/>
 <path d="M7871 7094 c0 -11 3 -14 6 -6 3 7 2 16 -1 19 -3 4 -6 -2 -5 -13z"/>
 <path d="M7348 6753 c7 -3 16 -2 19 1 4 3 -2 6 -13 5 -11 0 -14 -3 -6 -6z"/>
 <path d="M10515 10687 c3 -18 18 -68 32 -112 39 -120 68 -212 93 -295 12 -41 33 -106 45 -145 23 -74 57 -184 101 -325 14 -47 34 -110 44 -140 10 -30 30 -95 45 -145 15 -49 37 -121 50 -160 12 -38 32 -104 44 -145 13 -41 33 -106 45 -145 13 -38 35 -110 51 -160 15 -49 38 -121 50 -160 12 -38 32 -104 45 -145 12 -41 33 -106 45 -145 12 -38 34 -110 50 -160 15 -49 36 -115 46 -145 9 -30 20 -67 23 -82 4 -16 10 -28 14 -28 5 0 67 62 138 137 71 76 317 337 547 581 255 269 417 448 414 456 -3 8 -104 93 -224 190 -120 97 -236 197 -258 223 -22 27 -228 249 -457 495 l-418 446 -237 57 c-131 31 -260 63 -286 71 l-48 13 6 -32z"/>
 <path d="M12008 8483 c-321 -339 -590 -626 -599 -637 -12 -17 -18 -71 -28 -266 -7 -135 -19 -362 -26 -505 -8 -143 -24 -435 -35 -650 -11 -214 -23 -434 -26 -488 l-7 -98 24 6 c13 3 119 21 234 41 116 20 274 47 352 60 79 14 207 35 285 49 79 13 206 35 283 49 125 22 394 69 825 143 337 57 433 74 775 133 198 34 361 63 362 64 1 1 -9 51 -22 111 -13 61 -40 184 -60 275 -20 91 -70 318 -111 505 -41 187 -88 403 -105 480 -17 77 -36 145 -43 150 -13 11 -497 400 -871 701 -121 98 -308 249 -416 336 -108 87 -199 158 -203 158 -3 0 -268 -278 -588 -617z"/>
 <path d="M14315 6175 c-71 -12 -499 -86 -950 -164 -451 -77 -842 -145 -870 -151 -27 -5 -171 -30 -320 -55 -148 -25 -333 -57 -410 -70 -77 -14 -218 -38 -313 -55 -95 -16 -176 -32 -181 -34 -4 -3 -18 -40 -31 -83 -12 -43 -26 -82 -30 -88 -5 -5 -13 -30 -20 -55 -6 -25 -18 -58 -26 -75 -7 -16 -24 -61 -38 -100 -48 -140 -146 -422 -176 -505 -66 -182 -79 -218 -108 -300 -16 -47 -44 -128 -62 -180 -17 -52 -35 -104 -40 -115 -11 -25 -59 -169 -57 -171 2 -2 443 -74 1032 -169 253 -41 485 -79 515 -85 30 -6 251 -42 490 -80 239 -38 629 -101 865 -140 237 -39 468 -77 515 -84 47 -8 246 -40 443 -71 196 -32 359 -56 361 -54 3 4 388 1190 431 1330 l18 56 -393 694 c-216 382 -411 724 -432 762 -45 77 -28 74 -213 42z"/>
 <path d="M10150 3376 c-239 -233 -436 -429 -438 -435 -2 -6 8 -15 23 -21 14 -5 64 -28 111 -50 47 -22 87 -40 90 -40 2 0 47 -20 100 -45 52 -25 97 -45 99 -45 3 0 42 -17 87 -39 46 -21 211 -95 368 -165 157 -70 303 -136 325 -146 22 -11 67 -31 100 -46 33 -14 78 -35 100 -45 22 -10 65 -29 95 -42 137 -61 209 -94 343 -156 48 -23 91 -41 95 -41 4 0 23 -8 42 -19 19 -10 69 -33 110 -51 41 -17 98 -42 125 -55 93 -43 159 -73 410 -185 138 -61 273 -122 300 -135 28 -13 138 -62 245 -110 188 -84 226 -101 335 -150 28 -13 70 -32 95 -43 25 -11 89 -41 143 -66 54 -25 104 -46 110 -46 7 0 17 -4 23 -9 5 -5 47 -26 94 -46 112 -49 189 -84 222 -101 14 -8 34 -14 45 -14 13 0 1095 789 1130 824 3 2 -7 80 -22 173 -14 92 -37 240 -50 328 -13 88 -36 237 -50 330 -50 328 -63 406 -67 410 -4 4 -357 63 -833 139 -121 20 -245 40 -275 46 -30 6 -251 42 -490 80 -417 67 -955 154 -1945 316 -253 41 -516 84 -585 95 -69 10 -136 21 -150 24 -22 4 -82 -51 -460 -419z"/>
 <path d="M9470 2788 c-39 -11 -167 -51 -250 -78 -30 -9 -86 -27 -125 -38 -130 -39 -240 -74 -293 -93 -30 -10 -62 -19 -73 -19 -34 0 -20 -16 59 -68 42 -28 120 -81 172 -116 52 -36 131 -90 175 -120 44 -30 123 -84 175 -120 52 -36 140 -96 194 -133 55 -38 133 -92 175 -120 42 -29 112 -77 156 -107 44 -30 116 -80 160 -111 44 -30 131 -90 194 -133 62 -42 139 -95 171 -117 32 -22 104 -71 161 -110 178 -121 381 -261 524 -360 40 -27 117 -80 171 -117 171 -116 442 -303 469 -323 22 -16 212 -26 1130 -60 231 -9 496 -19 588 -23 93 -4 172 -5 176 -2 16 11 242 442 238 453 -3 7 -40 28 -83 46 -44 19 -108 48 -144 64 -36 16 -85 39 -110 50 -51 22 -116 52 -210 95 -36 16 -128 58 -205 92 -77 34 -162 72 -190 85 -27 13 -273 123 -545 245 -272 122 -513 230 -535 240 -22 11 -67 31 -100 46 -33 14 -78 35 -100 45 -22 10 -67 30 -100 45 -33 14 -78 35 -100 45 -22 10 -67 30 -100 45 -33 15 -82 37 -110 49 -27 13 -72 33 -100 45 -27 12 -58 26 -67 31 -9 5 -124 56 -255 115 -131 58 -271 121 -311 140 -40 19 -75 34 -77 34 -3 0 -42 17 -87 39 -313 146 -739 331 -759 330 -13 -1 -40 -6 -59 -11z"/>
 <path d="M7900 2667 c8 -7 508 -406 1110 -888 l1095 -876 683 -266 c550 -215 687 -265 703 -257 10 6 19 14 18 18 0 4 -28 25 -62 48 -34 22 -102 68 -152 102 -49 34 -169 116 -265 182 -96 66 -220 150 -274 187 -55 38 -125 86 -157 108 -31 22 -110 76 -175 120 -64 44 -143 98 -175 120 -53 38 -121 84 -349 239 -52 36 -131 90 -175 121 -44 30 -116 80 -160 110 -44 30 -123 84 -175 120 -52 35 -131 89 -175 119 -44 30 -123 84 -175 121 -52 36 -139 96 -194 133 -54 37 -131 90 -171 117 -213 146 -280 187 -333 200 -31 9 -75 22 -97 29 -22 8 -80 27 -130 42 -49 14 -117 35 -149 45 -68 22 -87 24 -66 6z"/>
 </g>
<g id="layer106" fill="#ef8b3e" stroke="none">
 <path d="M5700 12064 c-162 -7 -578 -25 -925 -39 -346 -14 -772 -32 -945 -40 l-315 -14 -505 -209 c-278 -115 -539 -223 -581 -241 -62 -26 -85 -42 -120 -84 -24 -28 -55 -65 -68 -80 l-25 -30 35 18 c104 54 297 161 318 177 34 26 61 24 306 -28 l220 -46 243 71 c133 39 255 71 271 71 16 0 191 -31 388 -69 197 -38 500 -97 673 -130 173 -34 324 -63 336 -66 24 -5 873 -589 892 -613 19 -25 15 -85 -8 -110 -23 -24 -61 -37 -88 -30 -9 3 -201 132 -426 288 -224 155 -420 286 -435 291 -14 4 -213 44 -441 88 -228 44 -521 101 -651 126 l-236 46 -239 -72 c-131 -39 -255 -72 -274 -72 -19 -1 -121 18 -226 41 -105 23 -200 42 -211 42 -11 0 -175 -83 -364 -185 -189 -102 -353 -185 -365 -185 -15 0 -45 -27 -95 -86 l-73 -86 -22 -351 c-12 -194 -24 -406 -28 -472 -4 -66 -9 -149 -12 -185 -6 -65 -4 -77 70 -470 30 -161 66 -351 96 -515 13 -66 24 -122 26 -123 1 -2 100 58 219 133 199 126 219 137 253 132 20 -3 233 -49 472 -101 239 -53 447 -96 462 -96 16 0 41 -12 58 -27 28 -26 42 -67 165 -498 74 -258 135 -480 135 -493 0 -40 -26 -76 -92 -127 -79 -61 -252 -197 -383 -301 -56 -43 -102 -83 -103 -87 -2 -7 211 -173 1317 -1029 l295 -227 257 -418 c177 -288 266 -424 287 -438 17 -11 47 -40 67 -65 21 -25 74 -83 119 -130 44 -47 144 -153 221 -235 77 -83 174 -186 215 -230 42 -44 109 -116 150 -160 41 -44 116 -122 166 -175 49 -52 191 -203 314 -335 123 -132 261 -278 306 -325 46 -47 92 -97 104 -112 12 -15 25 -27 29 -25 4 1 128 -69 274 -156 267 -158 291 -169 502 -232 50 -14 110 -33 135 -40 112 -35 189 -59 240 -75 30 -9 89 -27 130 -40 41 -13 100 -31 130 -41 113 -36 159 -49 176 -49 10 0 66 15 124 34 58 19 146 46 195 61 50 14 115 34 145 44 30 10 96 31 145 46 50 15 115 35 145 45 30 10 91 28 135 41 l80 24 340 331 c187 181 406 395 487 473 160 155 173 174 222 331 15 47 32 94 37 105 5 11 18 47 28 80 11 33 34 98 51 145 17 47 44 121 59 165 16 44 43 121 61 170 17 50 44 128 60 175 16 47 43 123 60 170 62 171 130 364 184 525 21 61 26 107 40 375 18 331 46 845 72 1335 24 433 23 477 -2 550 -12 33 -34 101 -49 150 -15 50 -35 115 -44 145 -10 30 -31 96 -46 145 -15 50 -38 122 -50 160 -12 39 -34 111 -49 160 -15 50 -36 115 -46 145 -10 30 -30 96 -45 145 -15 50 -37 124 -50 165 -13 41 -36 113 -50 160 -15 47 -35 110 -45 140 -9 30 -30 96 -45 145 -32 107 -70 229 -95 305 -9 30 -30 96 -44 145 -15 50 -36 115 -46 145 -9 30 -32 102 -50 160 -17 58 -40 130 -50 160 -10 30 -30 96 -45 145 -14 50 -32 103 -39 119 -11 26 -109 72 -1024 482 l-1013 454 -357 65 c-196 35 -483 87 -637 114 -154 28 -481 86 -727 130 -245 45 -468 80 -495 80 -26 -1 -181 -8 -343 -15z m-1634 -1459 c64 -19 122 -69 159 -136 67 -124 23 -273 -106 -355 -36 -22 -59 -28 -121 -32 -69 -4 -84 -2 -132 22 -88 43 -155 146 -156 237 0 111 78 225 180 259 67 23 111 25 176 5z m3967 -2787 c39 -20 631 -430 659 -456 32 -29 41 -62 29 -95 -13 -33 -726 -657 -751 -657 -17 0 -284 -73 -540 -147 -137 -40 -141 -40 -207 0 -32 19 -177 96 -323 172 -146 76 -359 187 -475 248 -115 60 -229 118 -252 128 -55 24 -82 73 -64 117 9 21 125 114 417 331 222 167 404 306 404 311 0 4 11 19 25 34 l24 26 516 0 c371 0 522 -3 538 -12z m1120 -1228 c19 -16 37 -30 40 -30 2 0 112 -52 243 -116 520 -253 750 -362 768 -365 48 -10 54 -35 81 -384 14 -181 35 -449 46 -593 11 -145 18 -274 15 -288 -4 -13 -15 -32 -27 -43 -11 -10 -173 -243 -359 -517 -186 -275 -344 -507 -352 -517 -9 -12 -76 -36 -203 -72 -105 -29 -314 -88 -465 -130 -151 -42 -393 -110 -538 -151 -144 -41 -267 -74 -272 -74 -6 0 -246 102 -533 226 -287 124 -641 277 -787 340 -146 63 -276 120 -290 127 -18 9 -73 111 -221 407 -109 217 -198 406 -198 420 -1 35 34 88 61 95 13 3 324 66 691 139 368 73 672 137 677 142 4 5 123 214 263 464 140 250 263 468 274 485 15 25 82 58 436 216 229 102 447 200 485 217 86 41 121 41 165 2z"/>
 <path d="M10515 10687 c3 -18 18 -68 32 -112 39 -120 68 -212 93 -295 12 -41 33 -106 45 -145 23 -74 57 -184 101 -325 14 -47 34 -110 44 -140 10 -30 30 -95 45 -145 15 -49 37 -121 50 -160 12 -38 32 -104 44 -145 13 -41 33 -106 45 -145 13 -38 35 -110 51 -160 15 -49 38 -121 50 -160 12 -38 32 -104 45 -145 12 -41 33 -106 45 -145 12 -38 34 -110 50 -160 15 -49 36 -115 46 -145 9 -30 20 -67 23 -82 4 -16 10 -28 14 -28 5 0 67 62 138 137 71 76 317 337 547 581 255 269 417 448 414 456 -3 8 -104 93 -224 190 -120 97 -236 197 -258 223 -22 27 -228 249 -457 495 l-418 446 -237 57 c-131 31 -260 63 -286 71 l-48 13 6 -32z"/>
 <path d="M12008 8483 c-321 -339 -590 -626 -599 -637 -12 -17 -18 -71 -28 -266 -7 -135 -19 -362 -26 -505 -8 -143 -24 -435 -35 -650 -11 -214 -23 -434 -26 -488 l-7 -98 24 6 c13 3 119 21 234 41 116 20 274 47 352 60 79 14 207 35 285 49 79 13 206 35 283 49 125 22 394 69 825 143 337 57 433 74 775 133 198 34 361 63 362 64 1 1 -9 51 -22 111 -13 61 -40 184 -60 275 -20 91 -70 318 -111 505 -41 187 -88 403 -105 480 -17 77 -36 145 -43 150 -13 11 -497 400 -871 701 -121 98 -308 249 -416 336 -108 87 -199 158 -203 158 -3 0 -268 -278 -588 -617z"/>
 <path d="M14315 6175 c-71 -12 -499 -86 -950 -164 -451 -77 -842 -145 -870 -151 -27 -5 -171 -30 -320 -55 -148 -25 -333 -57 -410 -70 -77 -14 -218 -38 -313 -55 -95 -16 -176 -32 -181 -34 -4 -3 -18 -40 -31 -83 -12 -43 -26 -82 -30 -88 -5 -5 -13 -30 -20 -55 -6 -25 -18 -58 -26 -75 -7 -16 -24 -61 -38 -100 -48 -140 -146 -422 -176 -505 -66 -182 -79 -218 -108 -300 -16 -47 -44 -128 -62 -180 -17 -52 -35 -104 -40 -115 -11 -25 -59 -169 -57 -171 2 -2 443 -74 1032 -169 253 -41 485 -79 515 -85 30 -6 251 -42 490 -80 239 -38 629 -101 865 -140 237 -39 468 -77 515 -84 47 -8 246 -40 443 -71 196 -32 359 -56 361 -54 3 4 388 1190 431 1330 l18 56 -393 694 c-216 382 -411 724 -432 762 -45 77 -28 74 -213 42z"/>
 <path d="M10150 3376 c-239 -233 -436 -429 -438 -435 -2 -6 8 -15 23 -21 14 -5 64 -28 111 -50 47 -22 87 -40 90 -40 2 0 47 -20 100 -45 52 -25 97 -45 99 -45 3 0 42 -17 87 -39 46 -21 211 -95 368 -165 157 -70 303 -136 325 -146 22 -11 67 -31 100 -46 33 -14 78 -35 100 -45 22 -10 65 -29 95 -42 137 -61 209 -94 343 -156 48 -23 91 -41 95 -41 4 0 23 -8 42 -19 19 -10 69 -33 110 -51 41 -17 98 -42 125 -55 93 -43 159 -73 410 -185 138 -61 273 -122 300 -135 28 -13 138 -62 245 -110 188 -84 226 -101 335 -150 28 -13 70 -32 95 -43 25 -11 89 -41 143 -66 54 -25 104 -46 110 -46 7 0 17 -4 23 -9 5 -5 47 -26 94 -46 112 -49 189 -84 222 -101 14 -8 34 -14 45 -14 13 0 1095 789 1130 824 3 2 -7 80 -22 173 -14 92 -37 240 -50 328 -13 88 -36 237 -50 330 -50 328 -63 406 -67 410 -4 4 -357 63 -833 139 -121 20 -245 40 -275 46 -30 6 -251 42 -490 80 -417 67 -955 154 -1945 316 -253 41 -516 84 -585 95 -69 10 -136 21 -150 24 -22 4 -82 -51 -460 -419z"/>
 <path d="M9470 2788 c-39 -11 -167 -51 -250 -78 -30 -9 -86 -27 -125 -38 -130 -39 -240 -74 -293 -93 -30 -10 -62 -19 -73 -19 -34 0 -20 -16 59 -68 42 -28 120 -81 172 -116 52 -36 131 -90 175 -120 44 -30 123 -84 175 -120 52 -36 140 -96 194 -133 55 -38 133 -92 175 -120 42 -29 112 -77 156 -107 44 -30 116 -80 160 -111 44 -30 131 -90 194 -133 62 -42 139 -95 171 -117 32 -22 104 -71 161 -110 178 -121 381 -261 524 -360 40 -27 117 -80 171 -117 171 -116 442 -303 469 -323 22 -16 212 -26 1130 -60 231 -9 496 -19 588 -23 93 -4 172 -5 176 -2 16 11 242 442 238 453 -3 7 -40 28 -83 46 -44 19 -108 48 -144 64 -36 16 -85 39 -110 50 -51 22 -116 52 -210 95 -36 16 -128 58 -205 92 -77 34 -162 72 -190 85 -27 13 -273 123 -545 245 -272 122 -513 230 -535 240 -22 11 -67 31 -100 46 -33 14 -78 35 -100 45 -22 10 -67 30 -100 45 -33 14 -78 35 -100 45 -22 10 -67 30 -100 45 -33 15 -82 37 -110 49 -27 13 -72 33 -100 45 -27 12 -58 26 -67 31 -9 5 -124 56 -255 115 -131 58 -271 121 -311 140 -40 19 -75 34 -77 34 -3 0 -42 17 -87 39 -313 146 -739 331 -759 330 -13 -1 -40 -6 -59 -11z"/>
 <path d="M7900 2667 c8 -7 508 -406 1110 -888 l1095 -876 683 -266 c550 -215 687 -265 703 -257 10 6 19 14 18 18 0 4 -28 25 -62 48 -34 22 -102 68 -152 102 -49 34 -169 116 -265 182 -96 66 -220 150 -274 187 -55 38 -125 86 -157 108 -31 22 -110 76 -175 120 -64 44 -143 98 -175 120 -53 38 -121 84 -349 239 -52 36 -131 90 -175 121 -44 30 -116 80 -160 110 -44 30 -123 84 -175 120 -52 35 -131 89 -175 119 -44 30 -123 84 -175 121 -52 36 -139 96 -194 133 -54 37 -131 90 -171 117 -213 146 -280 187 -333 200 -31 9 -75 22 -97 29 -22 8 -80 27 -130 42 -49 14 -117 35 -149 45 -68 22 -87 24 -66 6z"/>
 </g>

</svg>